<?xml version="1.0" encoding="utf-8" standalone="no"?>
<!DOCTYPE svg PUBLIC "-//W3C//DTD SVG 1.1//EN"
  "http://www.w3.org/Graphics/SVG/1.1/DTD/svg11.dtd">
<svg xmlns:xlink="http://www.w3.org/1999/xlink" width="420.624pt" height="229.5072pt" viewBox="0 0 420.624 229.5072" xmlns="http://www.w3.org/2000/svg" version="1.1">
 <metadata>
  <rdf:RDF xmlns:dc="http://purl.org/dc/elements/1.1/" xmlns:cc="http://creativecommons.org/ns#" xmlns:rdf="http://www.w3.org/1999/02/22-rdf-syntax-ns#">
   <cc:Work>
    <dc:type rdf:resource="http://purl.org/dc/dcmitype/StillImage"/>
    <dc:date>2026-07-19T18:39:22.480676</dc:date>
    <dc:format>image/svg+xml</dc:format>
    <dc:creator>
     <cc:Agent>
      <dc:title>Matplotlib v3.11.0, https://matplotlib.org/</dc:title>
     </cc:Agent>
    </dc:creator>
   </cc:Work>
  </rdf:RDF>
 </metadata>
 <defs>
  <style type="text/css">*{stroke-linejoin: round; stroke-linecap: butt}</style>
 </defs>
 <g id="figure_1">
  <g id="patch_1">
   <path d="M 0 229.5072 
L 420.624 229.5072 
L 420.624 -0 
L 0 -0 
z
" style="fill: #ffffff"/>
  </g>
  <g id="axes_1">
   <g id="patch_2">
    <path d="M 14.918256 59.47105 
L 60.415344 59.47105 
Q 65.290032 59.47105 65.290032 56.889763 
L 65.290032 31.722221 
Q 65.290032 29.140934 60.415344 29.140934 
L 14.918256 29.140934 
Q 10.043568 29.140934 10.043568 31.722221 
L 10.043568 56.889763 
Q 10.043568 59.47105 14.918256 59.47105 
z
" clip-path="url(#pa25b9bbe02)" style="fill: #eaf2f8; stroke: #2c6aa0; stroke-width: 1.7; stroke-linejoin: miter"/>
   </g>
   <g id="patch_3">
    <path d="M 71.789616 59.47105 
L 131.504544 59.47105 
Q 136.379232 59.47105 136.379232 56.889763 
L 136.379232 31.722221 
Q 136.379232 29.140934 131.504544 29.140934 
L 71.789616 29.140934 
Q 66.914928 29.140934 66.914928 31.722221 
L 66.914928 56.889763 
Q 66.914928 59.47105 71.789616 59.47105 
z
" clip-path="url(#pa25b9bbe02)" style="fill: #eaf2f8; stroke: #2c6aa0; stroke-width: 1.7; stroke-linejoin: miter"/>
   </g>
   <g id="patch_4">
    <path d="M 158.315328 29.140934 
L 179.438976 44.413546 
L 158.315328 59.686157 
L 137.19168 44.413546 
z
" clip-path="url(#pa25b9bbe02)" style="fill: #eaf2f8; stroke: #2c6aa0; stroke-width: 1.7; stroke-linejoin: miter"/>
   </g>
   <g id="patch_5">
    <path d="M 188.375904 59.47105 
L 239.966352 59.47105 
Q 244.84104 59.47105 244.84104 56.889763 
L 244.84104 31.722221 
Q 244.84104 29.140934 239.966352 29.140934 
L 188.375904 29.140934 
Q 183.501216 29.140934 183.501216 31.722221 
L 183.501216 56.889763 
Q 183.501216 59.47105 188.375904 59.47105 
z
" clip-path="url(#pa25b9bbe02)" style="fill: #eaf2f8; stroke: #2c6aa0; stroke-width: 1.7; stroke-linejoin: miter"/>
   </g>
   <g id="patch_6">
    <path d="M 251.340624 59.47105 
L 317.148912 59.47105 
Q 322.0236 59.47105 322.0236 56.889763 
L 322.0236 31.722221 
Q 322.0236 29.140934 317.148912 29.140934 
L 251.340624 29.140934 
Q 246.465936 29.140934 246.465936 31.722221 
L 246.465936 56.889763 
Q 246.465936 59.47105 251.340624 59.47105 
z
" clip-path="url(#pa25b9bbe02)" style="fill: #fff2d5; stroke: #e69f00; stroke-width: 1.7; stroke-linejoin: miter"/>
   </g>
   <g id="patch_7">
    <path d="M 147.753504 121.852138 
L 205.031088 121.852138 
Q 209.093328 121.852138 209.093328 119.701066 
L 209.093328 95.824166 
Q 209.093328 93.673094 205.031088 93.673094 
L 147.753504 93.673094 
Q 143.691264 93.673094 143.691264 95.824166 
L 143.691264 119.701066 
Q 143.691264 121.852138 147.753504 121.852138 
z
" clip-path="url(#pa25b9bbe02)" style="fill: #f3f4f6; stroke: #6b7280; stroke-width: 1.7; stroke-linejoin: miter"/>
   </g>
   <g id="patch_8">
    <path d="M 255.809088 134.75857 
L 319.180032 134.75857 
Q 323.242272 134.75857 323.242272 132.607498 
L 323.242272 108.730598 
Q 323.242272 106.579526 319.180032 106.579526 
L 255.809088 106.579526 
Q 251.746848 106.579526 251.746848 108.730598 
L 251.746848 132.607498 
Q 251.746848 134.75857 255.809088 134.75857 
z
" clip-path="url(#pa25b9bbe02)" style="fill: #fff2d5; stroke: #e69f00; stroke-width: 1.7; stroke-linejoin: miter"/>
   </g>
   <g id="patch_9">
    <path d="M 347.209488 134.75857 
L 390.269232 134.75857 
Q 394.331472 134.75857 394.331472 132.607498 
L 394.331472 108.730598 
Q 394.331472 106.579526 390.269232 106.579526 
L 347.209488 106.579526 
Q 343.147248 106.579526 343.147248 108.730598 
L 343.147248 132.607498 
Q 343.147248 134.75857 347.209488 134.75857 
z
" clip-path="url(#pa25b9bbe02)" style="fill: #e9f5ef; stroke: #009e73; stroke-width: 1.7; stroke-linejoin: miter"/>
   </g>
   <g id="patch_10">
    <path d="M 70.977168 192.837514 
L 132.316992 192.837514 
Q 136.379232 192.837514 136.379232 190.686442 
L 136.379232 166.809542 
Q 136.379232 164.65847 132.316992 164.65847 
L 70.977168 164.65847 
Q 66.914928 164.65847 66.914928 166.809542 
L 66.914928 190.686442 
Q 66.914928 192.837514 70.977168 192.837514 
z
" clip-path="url(#pa25b9bbe02)" style="fill: #e9f5ef; stroke: #009e73; stroke-width: 1.7; stroke-linejoin: miter"/>
   </g>
   <g id="patch_11">
    <path d="M 62.04024 44.413546 
Q 66.10248 44.413546 68.543571 44.413546 
" clip-path="url(#pa25b9bbe02)" style="fill: none; stroke: #182234; stroke-width: 1.45; stroke-linecap: round"/>
    <path d="M 65.343571 42.813546 
L 68.543571 44.413546 
L 65.343571 46.013546 
z
" clip-path="url(#pa25b9bbe02)" style="fill: #182234; stroke: #182234; stroke-width: 1.45; stroke-linecap: round"/>
   </g>
   <g id="patch_12">
    <path d="M 133.12944 44.413546 
Q 135.16056 44.413546 135.570531 44.413546 
" clip-path="url(#pa25b9bbe02)" style="fill: none; stroke: #182234; stroke-width: 1.45; stroke-linecap: round"/>
    <path d="M 132.370531 42.813546 
L 135.570531 44.413546 
L 132.370531 46.013546 
z
" clip-path="url(#pa25b9bbe02)" style="fill: #182234; stroke: #182234; stroke-width: 1.45; stroke-linecap: round"/>
   </g>
   <g id="patch_13">
    <path d="M 179.438976 44.413546 
Q 183.094992 44.413546 185.129859 44.413546 
" clip-path="url(#pa25b9bbe02)" style="fill: none; stroke: #182234; stroke-width: 1.45; stroke-linecap: round"/>
    <path d="M 181.929859 42.813546 
L 185.129859 44.413546 
L 181.929859 46.013546 
z
" clip-path="url(#pa25b9bbe02)" style="fill: #182234; stroke: #182234; stroke-width: 1.45; stroke-linecap: round"/>
   </g>
   <g id="patch_14">
    <path d="M 241.591248 44.413546 
Q 245.653488 44.413546 248.094579 44.413546 
" clip-path="url(#pa25b9bbe02)" style="fill: none; stroke: #182234; stroke-width: 1.45; stroke-linecap: round"/>
    <path d="M 244.894579 42.813546 
L 248.094579 44.413546 
L 244.894579 46.013546 
z
" clip-path="url(#pa25b9bbe02)" style="fill: #182234; stroke: #182234; stroke-width: 1.45; stroke-linecap: round"/>
   </g>
   <g id="patch_15">
    <path d="M 284.244768 57.750192 
Q 284.244768 83.025288 284.244768 106.679235 
" clip-path="url(#pa25b9bbe02)" style="fill: none; stroke: #e69f00; stroke-width: 1.45; stroke-linecap: round"/>
    <path d="M 285.844768 103.479235 
L 284.244768 106.679235 
L 282.644768 103.479235 
z
" clip-path="url(#pa25b9bbe02)" style="fill: #e69f00; stroke: #e69f00; stroke-width: 1.45; stroke-linecap: round"/>
   </g>
   <g id="patch_16">
    <path d="M 319.99248 120.776602 
Q 333.19476 120.776602 344.775891 120.776602 
" clip-path="url(#pa25b9bbe02)" style="fill: none; stroke: #009e73; stroke-width: 1.45; stroke-linecap: round"/>
    <path d="M 341.575891 119.176602 
L 344.775891 120.776602 
L 341.575891 122.376602 
z
" clip-path="url(#pa25b9bbe02)" style="fill: #009e73; stroke: #009e73; stroke-width: 1.45; stroke-linecap: round"/>
   </g>
   <g id="patch_17">
    <path d="M 158.315328 59.686157 
Q 158.315328 77.540054 158.315328 93.99641 
" clip-path="url(#pa25b9bbe02)" style="fill: none; stroke-dasharray: 4.625,2; stroke-dashoffset: 0; stroke: #6b7280; stroke-width: 1.25; stroke-linecap: round"/>
    <path d="M 159.715328 91.19641 
L 158.315328 93.99641 
L 156.915328 91.19641 
z
" clip-path="url(#pa25b9bbe02)" style="fill: #6b7280; stroke-dasharray: 4.625,2; stroke-dashoffset: 0; stroke: #6b7280; stroke-width: 1.25; stroke-linecap: round"/>
   </g>
   <g id="patch_18">
    <path d="M 346.39704 145.51393 
Q 352.896624 139.275821 358.387923 134.005434 
" clip-path="url(#pa25b9bbe02)" style="fill: none; stroke-dasharray: 4.625,2; stroke-dashoffset: 0; stroke: #6b7280; stroke-width: 1.25; stroke-linecap: round"/>
    <path d="M 355.398383 134.934224 
L 358.387923 134.005434 
L 357.337231 136.95434 
z
" clip-path="url(#pa25b9bbe02)" style="fill: #6b7280; stroke-dasharray: 4.625,2; stroke-dashoffset: 0; stroke: #6b7280; stroke-width: 1.25; stroke-linecap: round"/>
   </g>
   <g id="patch_19">
    <path d="M 133.12944 175.41383 
Q 133.12944 175.41383 133.12944 175.41383 
" clip-path="url(#pa25b9bbe02)" style="fill: none; stroke: #009e73; stroke-width: 1.35; stroke-linecap: round"/>
   </g>
   <g id="patch_20">
    <path d="M 369.551808 175.41383 
Q 251.340624 175.41383 134.638786 175.41383 
" clip-path="url(#pa25b9bbe02)" style="fill: none; stroke: #009e73; stroke-width: 1.35; stroke-linecap: round"/>
    <path d="M 137.438786 176.81383 
L 134.638786 175.41383 
L 137.438786 174.01383 
z
" clip-path="url(#pa25b9bbe02)" style="fill: #009e73; stroke: #009e73; stroke-width: 1.35; stroke-linecap: round"/>
   </g>
   <g id="patch_21">
    <path d="M 101.443968 166.379328 
Q 101.443968 112.06476 101.443968 59.259538 
" clip-path="url(#pa25b9bbe02)" style="fill: none; stroke: #009e73; stroke-width: 1.35; stroke-linecap: round"/>
    <path d="M 100.043968 62.059538 
L 101.443968 59.259538 
L 102.843968 62.059538 
z
" clip-path="url(#pa25b9bbe02)" style="fill: #009e73; stroke: #009e73; stroke-width: 1.35; stroke-linecap: round"/>
   </g>
   <g id="line2d_1">
    <path d="M 205.843536 107.87017 
L 224.52984 107.87017 
L 224.52984 145.51393 
L 346.39704 145.51393 
" clip-path="url(#pa25b9bbe02)" style="fill: none; stroke-dasharray: 4.625,2; stroke-dashoffset: 0; stroke: #6b7280; stroke-width: 1.25"/>
   </g>
   <g id="line2d_2">
    <path d="M 369.551808 133.037712 
L 369.551808 175.41383 
L 133.12944 175.41383 
" clip-path="url(#pa25b9bbe02)" style="fill: none; stroke: #009e73; stroke-width: 1.35; stroke-linecap: square"/>
   </g>
   <g id="line2d_3">
    <path d="M 17.3556 214.778448 
L 29.54232 214.778448 
" clip-path="url(#pa25b9bbe02)" style="fill: none; stroke: #182234; stroke-width: 1.35; stroke-linecap: square"/>
   </g>
   <g id="line2d_4">
    <path d="M 102.66264 214.778448 
L 114.84936 214.778448 
" clip-path="url(#pa25b9bbe02)" style="fill: none; stroke-dasharray: 4.995,2.16; stroke-dashoffset: 0; stroke: #6b7280; stroke-width: 1.35"/>
   </g>
   <g id="line2d_5">
    <path d="M 187.96968 214.778448 
L 200.1564 214.778448 
" clip-path="url(#pa25b9bbe02)" style="fill: none; stroke: #009e73; stroke-width: 1.35; stroke-linecap: square"/>
   </g>
   <g id="text_1">
    <!-- Request -->
    <g style="fill: #182234" transform="translate(18.231956 42.999094) scale(0.084 -0.084)">
     <defs>
      <path id="DejaVuSans-Bold-35" d="M 2297 2597 
Q 2675 2597 2839 2737 
Q 3003 2878 3003 3200 
Q 3003 3519 2839 3656 
Q 2675 3794 2297 3794 
L 1791 3794 
L 1791 2597 
L 2297 2597 
z
M 1791 1766 
L 1791 0 
L 588 0 
L 588 4666 
L 2425 4666 
Q 3347 4666 3776 4356 
Q 4206 4047 4206 3378 
Q 4206 2916 3982 2619 
Q 3759 2322 3309 2181 
Q 3556 2125 3751 1926 
Q 3947 1728 4147 1325 
L 4800 0 
L 3519 0 
L 2950 1159 
Q 2778 1509 2601 1637 
Q 2425 1766 2131 1766 
L 1791 1766 
z
" transform="scale(0.015625)"/>
      <path id="DejaVuSans-Bold-48" d="M 4031 1759 
L 4031 1441 
L 1416 1441 
Q 1456 1047 1700 850 
Q 1944 653 2381 653 
Q 2734 653 3104 758 
Q 3475 863 3866 1075 
L 3866 213 
Q 3469 63 3072 -14 
Q 2675 -91 2278 -91 
Q 1328 -91 801 392 
Q 275 875 275 1747 
Q 275 2603 792 3093 
Q 1309 3584 2216 3584 
Q 3041 3584 3536 3087 
Q 4031 2591 4031 1759 
z
M 2881 2131 
Q 2881 2450 2695 2645 
Q 2509 2841 2209 2841 
Q 1884 2841 1681 2658 
Q 1478 2475 1428 2131 
L 2881 2131 
z
" transform="scale(0.015625)"/>
      <path id="DejaVuSans-Bold-54" d="M 2181 2772 
Q 1825 2772 1636 2509 
Q 1447 2247 1447 1747 
Q 1447 1247 1636 984 
Q 1825 722 2181 722 
Q 2541 722 2730 984 
Q 2919 1247 2919 1747 
Q 2919 2247 2730 2509 
Q 2541 2772 2181 2772 
z
M 2919 506 
Q 2688 197 2409 53 
Q 2131 -91 1766 -91 
Q 1119 -91 703 423 
Q 288 938 288 1747 
Q 288 2556 703 3067 
Q 1119 3578 1766 3578 
Q 2131 3578 2409 3434 
Q 2688 3291 2919 2981 
L 2919 3500 
L 4044 3500 
L 4044 -1331 
L 2919 -1331 
L 2919 506 
z
" transform="scale(0.015625)"/>
      <path id="DejaVuSans-Bold-58" d="M 500 1363 
L 500 3500 
L 1625 3500 
L 1625 3150 
Q 1625 2866 1622 2436 
Q 1619 2006 1619 1863 
Q 1619 1441 1641 1255 
Q 1663 1069 1716 984 
Q 1784 875 1895 815 
Q 2006 756 2150 756 
Q 2500 756 2700 1025 
Q 2900 1294 2900 1772 
L 2900 3500 
L 4019 3500 
L 4019 0 
L 2900 0 
L 2900 506 
Q 2647 200 2364 54 
Q 2081 -91 1741 -91 
Q 1134 -91 817 281 
Q 500 653 500 1363 
z
" transform="scale(0.015625)"/>
      <path id="DejaVuSans-Bold-56" d="M 3272 3391 
L 3272 2541 
Q 2913 2691 2578 2766 
Q 2244 2841 1947 2841 
Q 1628 2841 1473 2761 
Q 1319 2681 1319 2516 
Q 1319 2381 1436 2309 
Q 1553 2238 1856 2203 
L 2053 2175 
Q 2913 2066 3209 1816 
Q 3506 1566 3506 1031 
Q 3506 472 3093 190 
Q 2681 -91 1863 -91 
Q 1516 -91 1145 -36 
Q 775 19 384 128 
L 384 978 
Q 719 816 1070 734 
Q 1422 653 1784 653 
Q 2113 653 2278 743 
Q 2444 834 2444 1013 
Q 2444 1163 2330 1236 
Q 2216 1309 1875 1350 
L 1678 1375 
Q 931 1469 631 1722 
Q 331 1975 331 2491 
Q 331 3047 712 3315 
Q 1094 3584 1881 3584 
Q 2191 3584 2531 3537 
Q 2872 3491 3272 3391 
z
" transform="scale(0.015625)"/>
      <path id="DejaVuSans-Bold-57" d="M 1759 4494 
L 1759 3500 
L 2913 3500 
L 2913 2700 
L 1759 2700 
L 1759 1216 
Q 1759 972 1856 886 
Q 1953 800 2241 800 
L 2816 800 
L 2816 0 
L 1856 0 
Q 1194 0 917 276 
Q 641 553 641 1216 
L 641 2700 
L 84 2700 
L 84 3500 
L 641 3500 
L 641 4494 
L 1759 4494 
z
" transform="scale(0.015625)"/>
     </defs>
     <use xlink:href="#DejaVuSans-Bold-35"/>
     <use xlink:href="#DejaVuSans-Bold-48" transform="translate(77 0)"/>
     <use xlink:href="#DejaVuSans-Bold-54" transform="translate(144.828125 0)"/>
     <use xlink:href="#DejaVuSans-Bold-58" transform="translate(216.40625 0)"/>
     <use xlink:href="#DejaVuSans-Bold-48" transform="translate(287.59375 0)"/>
     <use xlink:href="#DejaVuSans-Bold-56" transform="translate(355.421875 0)"/>
     <use xlink:href="#DejaVuSans-Bold-57" transform="translate(414.9375 0)"/>
    </g>
   </g>
   <g id="text_2">
    <!-- mem/time -->
    <g style="fill: #182234" transform="translate(20.640347 48.848875) scale(0.066 -0.066)">
     <defs>
      <path id="DejaVuSans-50" d="M 3328 2828 
Q 3544 3216 3844 3400 
Q 4144 3584 4550 3584 
Q 5097 3584 5394 3201 
Q 5691 2819 5691 2113 
L 5691 0 
L 5113 0 
L 5113 2094 
Q 5113 2597 4934 2840 
Q 4756 3084 4391 3084 
Q 3944 3084 3684 2787 
Q 3425 2491 3425 1978 
L 3425 0 
L 2847 0 
L 2847 2094 
Q 2847 2600 2669 2842 
Q 2491 3084 2119 3084 
Q 1678 3084 1418 2786 
Q 1159 2488 1159 1978 
L 1159 0 
L 581 0 
L 581 3500 
L 1159 3500 
L 1159 2956 
Q 1356 3278 1631 3431 
Q 1906 3584 2284 3584 
Q 2666 3584 2933 3390 
Q 3200 3197 3328 2828 
z
" transform="scale(0.015625)"/>
      <path id="DejaVuSans-48" d="M 3597 1894 
L 3597 1613 
L 953 1613 
Q 991 1019 1311 708 
Q 1631 397 2203 397 
Q 2534 397 2845 478 
Q 3156 559 3463 722 
L 3463 178 
Q 3153 47 2828 -22 
Q 2503 -91 2169 -91 
Q 1331 -91 842 396 
Q 353 884 353 1716 
Q 353 2575 817 3079 
Q 1281 3584 2069 3584 
Q 2775 3584 3186 3129 
Q 3597 2675 3597 1894 
z
M 3022 2063 
Q 3016 2534 2758 2815 
Q 2500 3097 2075 3097 
Q 1594 3097 1305 2825 
Q 1016 2553 972 2059 
L 3022 2063 
z
" transform="scale(0.015625)"/>
      <path id="DejaVuSans-12" d="M 1625 4666 
L 2156 4666 
L 531 -594 
L 0 -594 
L 1625 4666 
z
" transform="scale(0.015625)"/>
      <path id="DejaVuSans-57" d="M 1172 4494 
L 1172 3500 
L 2356 3500 
L 2356 3053 
L 1172 3053 
L 1172 1153 
Q 1172 725 1289 603 
Q 1406 481 1766 481 
L 2356 481 
L 2356 0 
L 1766 0 
Q 1100 0 847 248 
Q 594 497 594 1153 
L 594 3053 
L 172 3053 
L 172 3500 
L 594 3500 
L 594 4494 
L 1172 4494 
z
" transform="scale(0.015625)"/>
      <path id="DejaVuSans-4c" d="M 603 3500 
L 1178 3500 
L 1178 0 
L 603 0 
L 603 3500 
z
M 603 4863 
L 1178 4863 
L 1178 4134 
L 603 4134 
L 603 4863 
z
" transform="scale(0.015625)"/>
     </defs>
     <use xlink:href="#DejaVuSans-50"/>
     <use xlink:href="#DejaVuSans-48" transform="translate(97.40625 0)"/>
     <use xlink:href="#DejaVuSans-50" transform="translate(158.9375 0)"/>
     <use xlink:href="#DejaVuSans-12" transform="translate(256.34375 0)"/>
     <use xlink:href="#DejaVuSans-57" transform="translate(290.03125 0)"/>
     <use xlink:href="#DejaVuSans-4c" transform="translate(329.234375 0)"/>
     <use xlink:href="#DejaVuSans-50" transform="translate(357.015625 0)"/>
     <use xlink:href="#DejaVuSans-48" transform="translate(454.421875 0)"/>
    </g>
    <!-- CPU/GPU, name -->
    <g style="fill: #182234" transform="translate(11.427675 54.785266) scale(0.066 -0.066)">
     <defs>
      <path id="DejaVuSans-26" d="M 4122 4306 
L 4122 3641 
Q 3803 3938 3442 4084 
Q 3081 4231 2675 4231 
Q 1875 4231 1450 3742 
Q 1025 3253 1025 2328 
Q 1025 1406 1450 917 
Q 1875 428 2675 428 
Q 3081 428 3442 575 
Q 3803 722 4122 1019 
L 4122 359 
Q 3791 134 3420 21 
Q 3050 -91 2638 -91 
Q 1578 -91 968 557 
Q 359 1206 359 2328 
Q 359 3453 968 4101 
Q 1578 4750 2638 4750 
Q 3056 4750 3426 4639 
Q 3797 4528 4122 4306 
z
" transform="scale(0.015625)"/>
      <path id="DejaVuSans-33" d="M 1259 4147 
L 1259 2394 
L 2053 2394 
Q 2494 2394 2734 2622 
Q 2975 2850 2975 3272 
Q 2975 3691 2734 3919 
Q 2494 4147 2053 4147 
L 1259 4147 
z
M 628 4666 
L 2053 4666 
Q 2838 4666 3239 4311 
Q 3641 3956 3641 3272 
Q 3641 2581 3239 2228 
Q 2838 1875 2053 1875 
L 1259 1875 
L 1259 0 
L 628 0 
L 628 4666 
z
" transform="scale(0.015625)"/>
      <path id="DejaVuSans-38" d="M 556 4666 
L 1191 4666 
L 1191 1831 
Q 1191 1081 1462 751 
Q 1734 422 2344 422 
Q 2950 422 3222 751 
Q 3494 1081 3494 1831 
L 3494 4666 
L 4128 4666 
L 4128 1753 
Q 4128 841 3676 375 
Q 3225 -91 2344 -91 
Q 1459 -91 1007 375 
Q 556 841 556 1753 
L 556 4666 
z
" transform="scale(0.015625)"/>
      <path id="DejaVuSans-2a" d="M 3809 666 
L 3809 1919 
L 2778 1919 
L 2778 2438 
L 4434 2438 
L 4434 434 
Q 4069 175 3628 42 
Q 3188 -91 2688 -91 
Q 1594 -91 976 548 
Q 359 1188 359 2328 
Q 359 3472 976 4111 
Q 1594 4750 2688 4750 
Q 3144 4750 3555 4637 
Q 3966 4525 4313 4306 
L 4313 3634 
Q 3963 3931 3569 4081 
Q 3175 4231 2741 4231 
Q 1884 4231 1454 3753 
Q 1025 3275 1025 2328 
Q 1025 1384 1454 906 
Q 1884 428 2741 428 
Q 3075 428 3337 486 
Q 3600 544 3809 666 
z
" transform="scale(0.015625)"/>
      <path id="DejaVuSans-f" d="M 750 794 
L 1409 794 
L 1409 256 
L 897 -744 
L 494 -744 
L 750 256 
L 750 794 
z
" transform="scale(0.015625)"/>
      <path id="DejaVuSans-3" transform="scale(0.015625)"/>
      <path id="DejaVuSans-51" d="M 3513 2113 
L 3513 0 
L 2938 0 
L 2938 2094 
Q 2938 2591 2744 2837 
Q 2550 3084 2163 3084 
Q 1697 3084 1428 2787 
Q 1159 2491 1159 1978 
L 1159 0 
L 581 0 
L 581 3500 
L 1159 3500 
L 1159 2956 
Q 1366 3272 1645 3428 
Q 1925 3584 2291 3584 
Q 2894 3584 3203 3211 
Q 3513 2838 3513 2113 
z
" transform="scale(0.015625)"/>
      <path id="DejaVuSans-44" d="M 2194 1759 
Q 1497 1759 1228 1600 
Q 959 1441 959 1056 
Q 959 750 1161 570 
Q 1363 391 1709 391 
Q 2188 391 2477 730 
Q 2766 1069 2766 1631 
L 2766 1759 
L 2194 1759 
z
M 3341 1997 
L 3341 0 
L 2766 0 
L 2766 531 
Q 2569 213 2275 61 
Q 1981 -91 1556 -91 
Q 1019 -91 701 211 
Q 384 513 384 1019 
Q 384 1609 779 1909 
Q 1175 2209 1959 2209 
L 2766 2209 
L 2766 2266 
Q 2766 2663 2505 2880 
Q 2244 3097 1772 3097 
Q 1472 3097 1187 3025 
Q 903 2953 641 2809 
L 641 3341 
Q 956 3463 1253 3523 
Q 1550 3584 1831 3584 
Q 2591 3584 2966 3190 
Q 3341 2797 3341 1997 
z
" transform="scale(0.015625)"/>
     </defs>
     <use xlink:href="#DejaVuSans-26"/>
     <use xlink:href="#DejaVuSans-33" transform="translate(69.828125 0)"/>
     <use xlink:href="#DejaVuSans-38" transform="translate(130.125 0)"/>
     <use xlink:href="#DejaVuSans-12" transform="translate(203.3125 0)"/>
     <use xlink:href="#DejaVuSans-2a" transform="translate(237 0)"/>
     <use xlink:href="#DejaVuSans-33" transform="translate(314.484375 0)"/>
     <use xlink:href="#DejaVuSans-38" transform="translate(374.78125 0)"/>
     <use xlink:href="#DejaVuSans-f" transform="translate(447.96875 0)"/>
     <use xlink:href="#DejaVuSans-3" transform="translate(479.75 0)"/>
     <use xlink:href="#DejaVuSans-51" transform="translate(511.53125 0)"/>
     <use xlink:href="#DejaVuSans-44" transform="translate(574.90625 0)"/>
     <use xlink:href="#DejaVuSans-50" transform="translate(636.1875 0)"/>
     <use xlink:href="#DejaVuSans-48" transform="translate(733.59375 0)"/>
    </g>
   </g>
   <g id="text_3">
    <!-- Features -->
    <g style="fill: #182234" transform="translate(80.847892 43.812844) scale(0.084 -0.084)">
     <defs>
      <path id="DejaVuSans-Bold-29" d="M 588 4666 
L 3834 4666 
L 3834 3756 
L 1791 3756 
L 1791 2888 
L 3713 2888 
L 3713 1978 
L 1791 1978 
L 1791 0 
L 588 0 
L 588 4666 
z
" transform="scale(0.015625)"/>
      <path id="DejaVuSans-Bold-44" d="M 2106 1575 
Q 1756 1575 1579 1456 
Q 1403 1338 1403 1106 
Q 1403 894 1545 773 
Q 1688 653 1941 653 
Q 2256 653 2472 879 
Q 2688 1106 2688 1447 
L 2688 1575 
L 2106 1575 
z
M 3816 1997 
L 3816 0 
L 2688 0 
L 2688 519 
Q 2463 200 2181 54 
Q 1900 -91 1497 -91 
Q 953 -91 614 226 
Q 275 544 275 1050 
Q 275 1666 698 1953 
Q 1122 2241 2028 2241 
L 2688 2241 
L 2688 2328 
Q 2688 2594 2478 2717 
Q 2269 2841 1825 2841 
Q 1466 2841 1156 2769 
Q 847 2697 581 2553 
L 581 3406 
Q 941 3494 1303 3539 
Q 1666 3584 2028 3584 
Q 2975 3584 3395 3211 
Q 3816 2838 3816 1997 
z
" transform="scale(0.015625)"/>
      <path id="DejaVuSans-Bold-55" d="M 3138 2547 
Q 2991 2616 2845 2648 
Q 2700 2681 2553 2681 
Q 2122 2681 1889 2404 
Q 1656 2128 1656 1613 
L 1656 0 
L 538 0 
L 538 3500 
L 1656 3500 
L 1656 2925 
Q 1872 3269 2151 3426 
Q 2431 3584 2822 3584 
Q 2878 3584 2943 3579 
Q 3009 3575 3134 3559 
L 3138 2547 
z
" transform="scale(0.015625)"/>
     </defs>
     <use xlink:href="#DejaVuSans-Bold-29"/>
     <use xlink:href="#DejaVuSans-Bold-48" transform="translate(64.265625 0)"/>
     <use xlink:href="#DejaVuSans-Bold-44" transform="translate(132.09375 0)"/>
     <use xlink:href="#DejaVuSans-Bold-57" transform="translate(199.578125 0)"/>
     <use xlink:href="#DejaVuSans-Bold-58" transform="translate(247.375 0)"/>
     <use xlink:href="#DejaVuSans-Bold-55" transform="translate(318.5625 0)"/>
     <use xlink:href="#DejaVuSans-Bold-48" transform="translate(367.875 0)"/>
     <use xlink:href="#DejaVuSans-Bold-56" transform="translate(435.703125 0)"/>
    </g>
   </g>
   <g id="text_4">
    <!-- request fields -->
    <g style="fill: #182234" transform="translate(79.214299 48.46886) scale(0.066 -0.066)">
     <defs>
      <path id="DejaVuSans-55" d="M 2631 2963 
Q 2534 3019 2420 3045 
Q 2306 3072 2169 3072 
Q 1681 3072 1420 2755 
Q 1159 2438 1159 1844 
L 1159 0 
L 581 0 
L 581 3500 
L 1159 3500 
L 1159 2956 
Q 1341 3275 1631 3429 
Q 1922 3584 2338 3584 
Q 2397 3584 2469 3576 
Q 2541 3569 2628 3553 
L 2631 2963 
z
" transform="scale(0.015625)"/>
      <path id="DejaVuSans-54" d="M 947 1747 
Q 947 1113 1208 752 
Q 1469 391 1925 391 
Q 2381 391 2643 752 
Q 2906 1113 2906 1747 
Q 2906 2381 2643 2742 
Q 2381 3103 1925 3103 
Q 1469 3103 1208 2742 
Q 947 2381 947 1747 
z
M 2906 525 
Q 2725 213 2448 61 
Q 2172 -91 1784 -91 
Q 1150 -91 751 415 
Q 353 922 353 1747 
Q 353 2572 751 3078 
Q 1150 3584 1784 3584 
Q 2172 3584 2448 3432 
Q 2725 3281 2906 2969 
L 2906 3500 
L 3481 3500 
L 3481 -1331 
L 2906 -1331 
L 2906 525 
z
" transform="scale(0.015625)"/>
      <path id="DejaVuSans-58" d="M 544 1381 
L 544 3500 
L 1119 3500 
L 1119 1403 
Q 1119 906 1312 657 
Q 1506 409 1894 409 
Q 2359 409 2629 706 
Q 2900 1003 2900 1516 
L 2900 3500 
L 3475 3500 
L 3475 0 
L 2900 0 
L 2900 538 
Q 2691 219 2414 64 
Q 2138 -91 1772 -91 
Q 1169 -91 856 284 
Q 544 659 544 1381 
z
M 1991 3584 
L 1991 3584 
z
" transform="scale(0.015625)"/>
      <path id="DejaVuSans-56" d="M 2834 3397 
L 2834 2853 
Q 2591 2978 2328 3040 
Q 2066 3103 1784 3103 
Q 1356 3103 1142 2972 
Q 928 2841 928 2578 
Q 928 2378 1081 2264 
Q 1234 2150 1697 2047 
L 1894 2003 
Q 2506 1872 2764 1633 
Q 3022 1394 3022 966 
Q 3022 478 2636 193 
Q 2250 -91 1575 -91 
Q 1294 -91 989 -36 
Q 684 19 347 128 
L 347 722 
Q 666 556 975 473 
Q 1284 391 1588 391 
Q 1994 391 2212 530 
Q 2431 669 2431 922 
Q 2431 1156 2273 1281 
Q 2116 1406 1581 1522 
L 1381 1569 
Q 847 1681 609 1914 
Q 372 2147 372 2553 
Q 372 3047 722 3315 
Q 1072 3584 1716 3584 
Q 2034 3584 2315 3537 
Q 2597 3491 2834 3397 
z
" transform="scale(0.015625)"/>
      <path id="DejaVuSans-13af" d="M 3431 3500 
L 3431 0 
L 2853 0 
L 2853 3053 
L 1275 3053 
L 1275 0 
L 697 0 
L 697 3053 
L 147 3053 
L 147 3500 
L 697 3500 
L 697 3744 
Q 697 4316 967 4589 
Q 1238 4863 1797 4863 
L 2375 4863 
L 2375 4384 
L 1825 4384 
Q 1516 4384 1395 4259 
Q 1275 4134 1275 3809 
L 1275 3500 
L 3431 3500 
z
M 2853 4856 
L 3431 4856 
L 3431 4128 
L 2853 4128 
L 2853 4856 
z
" transform="scale(0.015625)"/>
      <path id="DejaVuSans-4f" d="M 603 4863 
L 1178 4863 
L 1178 0 
L 603 0 
L 603 4863 
z
" transform="scale(0.015625)"/>
      <path id="DejaVuSans-47" d="M 2906 2969 
L 2906 4863 
L 3481 4863 
L 3481 0 
L 2906 0 
L 2906 525 
Q 2725 213 2448 61 
Q 2172 -91 1784 -91 
Q 1150 -91 751 415 
Q 353 922 353 1747 
Q 353 2572 751 3078 
Q 1150 3584 1784 3584 
Q 2172 3584 2448 3432 
Q 2725 3281 2906 2969 
z
M 947 1747 
Q 947 1113 1208 752 
Q 1469 391 1925 391 
Q 2381 391 2643 752 
Q 2906 1113 2906 1747 
Q 2906 2381 2643 2742 
Q 2381 3103 1925 3103 
Q 1469 3103 1208 2742 
Q 947 2381 947 1747 
z
" transform="scale(0.015625)"/>
     </defs>
     <use xlink:href="#DejaVuSans-55"/>
     <use xlink:href="#DejaVuSans-48" transform="translate(38.90625 0)"/>
     <use xlink:href="#DejaVuSans-54" transform="translate(100.4375 0)"/>
     <use xlink:href="#DejaVuSans-58" transform="translate(163.921875 0)"/>
     <use xlink:href="#DejaVuSans-48" transform="translate(227.296875 0)"/>
     <use xlink:href="#DejaVuSans-56" transform="translate(288.828125 0)"/>
     <use xlink:href="#DejaVuSans-57" transform="translate(340.921875 0)"/>
     <use xlink:href="#DejaVuSans-3" transform="translate(380.125 0)"/>
     <use xlink:href="#DejaVuSans-13af" transform="translate(411.90625 0)"/>
     <use xlink:href="#DejaVuSans-48" transform="translate(474.890625 0)"/>
     <use xlink:href="#DejaVuSans-4f" transform="translate(536.421875 0)"/>
     <use xlink:href="#DejaVuSans-47" transform="translate(564.203125 0)"/>
     <use xlink:href="#DejaVuSans-56" transform="translate(627.6875 0)"/>
    </g>
    <!-- + history -->
    <g style="fill: #182234" transform="translate(86.483064 54.54086) scale(0.066 -0.066)">
     <defs>
      <path id="DejaVuSans-e" d="M 2944 4013 
L 2944 2272 
L 4684 2272 
L 4684 1741 
L 2944 1741 
L 2944 0 
L 2419 0 
L 2419 1741 
L 678 1741 
L 678 2272 
L 2419 2272 
L 2419 4013 
L 2944 4013 
z
" transform="scale(0.015625)"/>
      <path id="DejaVuSans-4b" d="M 3513 2113 
L 3513 0 
L 2938 0 
L 2938 2094 
Q 2938 2591 2744 2837 
Q 2550 3084 2163 3084 
Q 1697 3084 1428 2787 
Q 1159 2491 1159 1978 
L 1159 0 
L 581 0 
L 581 4863 
L 1159 4863 
L 1159 2956 
Q 1366 3272 1645 3428 
Q 1925 3584 2291 3584 
Q 2894 3584 3203 3211 
Q 3513 2838 3513 2113 
z
" transform="scale(0.015625)"/>
      <path id="DejaVuSans-52" d="M 1959 3097 
Q 1497 3097 1228 2736 
Q 959 2375 959 1747 
Q 959 1119 1226 758 
Q 1494 397 1959 397 
Q 2419 397 2687 759 
Q 2956 1122 2956 1747 
Q 2956 2369 2687 2733 
Q 2419 3097 1959 3097 
z
M 1959 3584 
Q 2709 3584 3137 3096 
Q 3566 2609 3566 1747 
Q 3566 888 3137 398 
Q 2709 -91 1959 -91 
Q 1206 -91 779 398 
Q 353 888 353 1747 
Q 353 2609 779 3096 
Q 1206 3584 1959 3584 
z
" transform="scale(0.015625)"/>
      <path id="DejaVuSans-5c" d="M 2059 -325 
Q 1816 -950 1584 -1140 
Q 1353 -1331 966 -1331 
L 506 -1331 
L 506 -850 
L 844 -850 
Q 1081 -850 1212 -737 
Q 1344 -625 1503 -206 
L 1606 56 
L 191 3500 
L 800 3500 
L 1894 763 
L 2988 3500 
L 3597 3500 
L 2059 -325 
z
" transform="scale(0.015625)"/>
     </defs>
     <use xlink:href="#DejaVuSans-e"/>
     <use xlink:href="#DejaVuSans-3" transform="translate(83.796875 0)"/>
     <use xlink:href="#DejaVuSans-4b" transform="translate(115.578125 0)"/>
     <use xlink:href="#DejaVuSans-4c" transform="translate(178.953125 0)"/>
     <use xlink:href="#DejaVuSans-56" transform="translate(206.734375 0)"/>
     <use xlink:href="#DejaVuSans-57" transform="translate(258.828125 0)"/>
     <use xlink:href="#DejaVuSans-52" transform="translate(298.03125 0)"/>
     <use xlink:href="#DejaVuSans-55" transform="translate(359.21875 0)"/>
     <use xlink:href="#DejaVuSans-5c" transform="translate(400.328125 0)"/>
    </g>
   </g>
   <g id="text_5">
    <!-- Selective -->
    <g style="fill: #182234" transform="translate(137.920367 43.685264) scale(0.079 -0.079)">
     <defs>
      <path id="DejaVuSans-Bold-36" d="M 3834 4519 
L 3834 3531 
Q 3450 3703 3084 3790 
Q 2719 3878 2394 3878 
Q 1963 3878 1756 3759 
Q 1550 3641 1550 3391 
Q 1550 3203 1689 3098 
Q 1828 2994 2194 2919 
L 2706 2816 
Q 3484 2659 3812 2340 
Q 4141 2022 4141 1434 
Q 4141 663 3683 286 
Q 3225 -91 2284 -91 
Q 1841 -91 1394 -6 
Q 947 78 500 244 
L 500 1259 
Q 947 1022 1364 901 
Q 1781 781 2169 781 
Q 2563 781 2772 912 
Q 2981 1044 2981 1288 
Q 2981 1506 2839 1625 
Q 2697 1744 2272 1838 
L 1806 1941 
Q 1106 2091 782 2419 
Q 459 2747 459 3303 
Q 459 4000 909 4375 
Q 1359 4750 2203 4750 
Q 2588 4750 2994 4692 
Q 3400 4634 3834 4519 
z
" transform="scale(0.015625)"/>
      <path id="DejaVuSans-Bold-4f" d="M 538 4863 
L 1656 4863 
L 1656 0 
L 538 0 
L 538 4863 
z
" transform="scale(0.015625)"/>
      <path id="DejaVuSans-Bold-46" d="M 3366 3391 
L 3366 2478 
Q 3138 2634 2908 2709 
Q 2678 2784 2431 2784 
Q 1963 2784 1702 2511 
Q 1441 2238 1441 1747 
Q 1441 1256 1702 982 
Q 1963 709 2431 709 
Q 2694 709 2930 787 
Q 3166 866 3366 1019 
L 3366 103 
Q 3103 6 2833 -42 
Q 2563 -91 2291 -91 
Q 1344 -91 809 395 
Q 275 881 275 1747 
Q 275 2613 809 3098 
Q 1344 3584 2291 3584 
Q 2566 3584 2833 3536 
Q 3100 3488 3366 3391 
z
" transform="scale(0.015625)"/>
      <path id="DejaVuSans-Bold-4c" d="M 538 3500 
L 1656 3500 
L 1656 0 
L 538 0 
L 538 3500 
z
M 538 4863 
L 1656 4863 
L 1656 3950 
L 538 3950 
L 538 4863 
z
" transform="scale(0.015625)"/>
      <path id="DejaVuSans-Bold-59" d="M 97 3500 
L 1216 3500 
L 2088 1081 
L 2956 3500 
L 4078 3500 
L 2700 0 
L 1472 0 
L 97 3500 
z
" transform="scale(0.015625)"/>
     </defs>
     <use xlink:href="#DejaVuSans-Bold-36"/>
     <use xlink:href="#DejaVuSans-Bold-48" transform="translate(72.015625 0)"/>
     <use xlink:href="#DejaVuSans-Bold-4f" transform="translate(139.84375 0)"/>
     <use xlink:href="#DejaVuSans-Bold-48" transform="translate(174.125 0)"/>
     <use xlink:href="#DejaVuSans-Bold-46" transform="translate(241.953125 0)"/>
     <use xlink:href="#DejaVuSans-Bold-57" transform="translate(301.234375 0)"/>
     <use xlink:href="#DejaVuSans-Bold-4c" transform="translate(349.03125 0)"/>
     <use xlink:href="#DejaVuSans-Bold-59" transform="translate(383.3125 0)"/>
     <use xlink:href="#DejaVuSans-Bold-48" transform="translate(448.5 0)"/>
    </g>
    <!-- gate -->
    <g style="fill: #182234" transform="translate(148.255172 50.00835) scale(0.079 -0.079)">
     <defs>
      <path id="DejaVuSans-Bold-4a" d="M 2919 594 
Q 2688 288 2409 144 
Q 2131 0 1766 0 
Q 1125 0 706 504 
Q 288 1009 288 1791 
Q 288 2575 706 3076 
Q 1125 3578 1766 3578 
Q 2131 3578 2409 3434 
Q 2688 3291 2919 2981 
L 2919 3500 
L 4044 3500 
L 4044 353 
Q 4044 -491 3511 -936 
Q 2978 -1381 1966 -1381 
Q 1638 -1381 1331 -1331 
Q 1025 -1281 716 -1178 
L 716 -306 
Q 1009 -475 1290 -558 
Q 1572 -641 1856 -641 
Q 2406 -641 2662 -400 
Q 2919 -159 2919 353 
L 2919 594 
z
M 2181 2772 
Q 1834 2772 1640 2515 
Q 1447 2259 1447 1791 
Q 1447 1309 1634 1061 
Q 1822 813 2181 813 
Q 2531 813 2725 1069 
Q 2919 1325 2919 1791 
Q 2919 2259 2725 2515 
Q 2531 2772 2181 2772 
z
" transform="scale(0.015625)"/>
     </defs>
     <use xlink:href="#DejaVuSans-Bold-4a"/>
     <use xlink:href="#DejaVuSans-Bold-44" transform="translate(71.578125 0)"/>
     <use xlink:href="#DejaVuSans-Bold-57" transform="translate(139.0625 0)"/>
     <use xlink:href="#DejaVuSans-Bold-48" transform="translate(186.859375 0)"/>
    </g>
   </g>
   <g id="text_6">
    <!-- Optimize? -->
    <g style="fill: #182234" transform="translate(162.377568 68.193133) scale(0.061 -0.061)">
     <defs>
      <path id="DejaVuSans-Bold-32" d="M 2719 3878 
Q 2169 3878 1866 3472 
Q 1563 3066 1563 2328 
Q 1563 1594 1866 1187 
Q 2169 781 2719 781 
Q 3272 781 3575 1187 
Q 3878 1594 3878 2328 
Q 3878 3066 3575 3472 
Q 3272 3878 2719 3878 
z
M 2719 4750 
Q 3844 4750 4481 4106 
Q 5119 3463 5119 2328 
Q 5119 1197 4481 553 
Q 3844 -91 2719 -91 
Q 1597 -91 958 553 
Q 319 1197 319 2328 
Q 319 3463 958 4106 
Q 1597 4750 2719 4750 
z
" transform="scale(0.015625)"/>
      <path id="DejaVuSans-Bold-53" d="M 1656 506 
L 1656 -1331 
L 538 -1331 
L 538 3500 
L 1656 3500 
L 1656 2988 
Q 1888 3294 2169 3439 
Q 2450 3584 2816 3584 
Q 3463 3584 3878 3070 
Q 4294 2556 4294 1747 
Q 4294 938 3878 423 
Q 3463 -91 2816 -91 
Q 2450 -91 2169 54 
Q 1888 200 1656 506 
z
M 2400 2772 
Q 2041 2772 1848 2508 
Q 1656 2244 1656 1747 
Q 1656 1250 1848 986 
Q 2041 722 2400 722 
Q 2759 722 2948 984 
Q 3138 1247 3138 1747 
Q 3138 2247 2948 2509 
Q 2759 2772 2400 2772 
z
" transform="scale(0.015625)"/>
      <path id="DejaVuSans-Bold-50" d="M 3781 2919 
Q 3994 3244 4286 3414 
Q 4578 3584 4928 3584 
Q 5531 3584 5847 3212 
Q 6163 2841 6163 2131 
L 6163 0 
L 5038 0 
L 5038 1825 
Q 5041 1866 5042 1909 
Q 5044 1953 5044 2034 
Q 5044 2406 4934 2573 
Q 4825 2741 4581 2741 
Q 4263 2741 4089 2478 
Q 3916 2216 3909 1719 
L 3909 0 
L 2784 0 
L 2784 1825 
Q 2784 2406 2684 2573 
Q 2584 2741 2328 2741 
Q 2006 2741 1831 2477 
Q 1656 2213 1656 1722 
L 1656 0 
L 531 0 
L 531 3500 
L 1656 3500 
L 1656 2988 
Q 1863 3284 2130 3434 
Q 2397 3584 2719 3584 
Q 3081 3584 3359 3409 
Q 3638 3234 3781 2919 
z
" transform="scale(0.015625)"/>
      <path id="DejaVuSans-Bold-5d" d="M 366 3500 
L 3419 3500 
L 3419 2719 
L 1575 800 
L 3419 800 
L 3419 0 
L 288 0 
L 288 781 
L 2131 2700 
L 366 2700 
L 366 3500 
z
" transform="scale(0.015625)"/>
      <path id="DejaVuSans-Bold-22" d="M 2216 1575 
L 1088 1575 
L 1088 1728 
Q 1088 1984 1191 2182 
Q 1294 2381 1625 2688 
L 1825 2869 
Q 2003 3031 2086 3175 
Q 2169 3319 2169 3463 
Q 2169 3681 2019 3804 
Q 1869 3928 1600 3928 
Q 1347 3928 1053 3823 
Q 759 3719 441 3513 
L 441 4494 
Q 819 4625 1131 4687 
Q 1444 4750 1734 4750 
Q 2497 4750 2897 4439 
Q 3297 4128 3297 3531 
Q 3297 3225 3175 2983 
Q 3053 2741 2759 2463 
L 2559 2284 
Q 2347 2091 2281 1973 
Q 2216 1856 2216 1716 
L 2216 1575 
z
M 1088 1113 
L 2216 1113 
L 2216 0 
L 1088 0 
L 1088 1113 
z
" transform="scale(0.015625)"/>
     </defs>
     <use xlink:href="#DejaVuSans-Bold-32"/>
     <use xlink:href="#DejaVuSans-Bold-53" transform="translate(85.015625 0)"/>
     <use xlink:href="#DejaVuSans-Bold-57" transform="translate(156.59375 0)"/>
     <use xlink:href="#DejaVuSans-Bold-4c" transform="translate(204.390625 0)"/>
     <use xlink:href="#DejaVuSans-Bold-50" transform="translate(238.671875 0)"/>
     <use xlink:href="#DejaVuSans-Bold-4c" transform="translate(342.875 0)"/>
     <use xlink:href="#DejaVuSans-Bold-5d" transform="translate(377.15625 0)"/>
     <use xlink:href="#DejaVuSans-Bold-48" transform="translate(435.359375 0)"/>
     <use xlink:href="#DejaVuSans-Bold-22" transform="translate(503.1875 0)"/>
    </g>
   </g>
   <g id="text_7">
    <!-- Predict -->
    <g style="fill: #182234" transform="translate(197.229378 43.942125) scale(0.084 -0.084)">
     <defs>
      <path id="DejaVuSans-Bold-33" d="M 588 4666 
L 2584 4666 
Q 3475 4666 3951 4270 
Q 4428 3875 4428 3144 
Q 4428 2409 3951 2014 
Q 3475 1619 2584 1619 
L 1791 1619 
L 1791 0 
L 588 0 
L 588 4666 
z
M 1791 3794 
L 1791 2491 
L 2456 2491 
Q 2806 2491 2997 2661 
Q 3188 2831 3188 3144 
Q 3188 3456 2997 3625 
Q 2806 3794 2456 3794 
L 1791 3794 
z
" transform="scale(0.015625)"/>
      <path id="DejaVuSans-Bold-47" d="M 2919 2988 
L 2919 4863 
L 4044 4863 
L 4044 0 
L 2919 0 
L 2919 506 
Q 2688 197 2409 53 
Q 2131 -91 1766 -91 
Q 1119 -91 703 423 
Q 288 938 288 1747 
Q 288 2556 703 3070 
Q 1119 3584 1766 3584 
Q 2128 3584 2408 3439 
Q 2688 3294 2919 2988 
z
M 2181 722 
Q 2541 722 2730 984 
Q 2919 1247 2919 1747 
Q 2919 2247 2730 2509 
Q 2541 2772 2181 2772 
Q 1825 2772 1636 2509 
Q 1447 2247 1447 1747 
Q 1447 1247 1636 984 
Q 1825 722 2181 722 
z
" transform="scale(0.015625)"/>
     </defs>
     <use xlink:href="#DejaVuSans-Bold-33"/>
     <use xlink:href="#DejaVuSans-Bold-55" transform="translate(73.296875 0)"/>
     <use xlink:href="#DejaVuSans-Bold-48" transform="translate(122.609375 0)"/>
     <use xlink:href="#DejaVuSans-Bold-47" transform="translate(190.4375 0)"/>
     <use xlink:href="#DejaVuSans-Bold-4c" transform="translate(262.015625 0)"/>
     <use xlink:href="#DejaVuSans-Bold-46" transform="translate(296.296875 0)"/>
     <use xlink:href="#DejaVuSans-Bold-57" transform="translate(355.578125 0)"/>
    </g>
   </g>
   <g id="text_8">
    <!-- memory % -->
    <g style="fill: #182234" transform="translate(196.198503 48.410594) scale(0.066 -0.066)">
     <defs>
      <path id="DejaVuSans-8" d="M 4653 2053 
Q 4381 2053 4226 1822 
Q 4072 1591 4072 1178 
Q 4072 772 4226 539 
Q 4381 306 4653 306 
Q 4919 306 5073 539 
Q 5228 772 5228 1178 
Q 5228 1588 5073 1820 
Q 4919 2053 4653 2053 
z
M 4653 2450 
Q 5147 2450 5437 2106 
Q 5728 1763 5728 1178 
Q 5728 594 5436 251 
Q 5144 -91 4653 -91 
Q 4153 -91 3862 251 
Q 3572 594 3572 1178 
Q 3572 1766 3864 2108 
Q 4156 2450 4653 2450 
z
M 1428 4353 
Q 1159 4353 1004 4120 
Q 850 3888 850 3481 
Q 850 3069 1003 2837 
Q 1156 2606 1428 2606 
Q 1700 2606 1854 2837 
Q 2009 3069 2009 3481 
Q 2009 3884 1853 4118 
Q 1697 4353 1428 4353 
z
M 4250 4750 
L 4750 4750 
L 1831 -91 
L 1331 -91 
L 4250 4750 
z
M 1428 4750 
Q 1922 4750 2215 4408 
Q 2509 4066 2509 3481 
Q 2509 2891 2217 2550 
Q 1925 2209 1428 2209 
Q 931 2209 642 2551 
Q 353 2894 353 3481 
Q 353 4063 643 4406 
Q 934 4750 1428 4750 
z
" transform="scale(0.015625)"/>
     </defs>
     <use xlink:href="#DejaVuSans-50"/>
     <use xlink:href="#DejaVuSans-48" transform="translate(97.40625 0)"/>
     <use xlink:href="#DejaVuSans-50" transform="translate(158.9375 0)"/>
     <use xlink:href="#DejaVuSans-52" transform="translate(256.34375 0)"/>
     <use xlink:href="#DejaVuSans-55" transform="translate(317.53125 0)"/>
     <use xlink:href="#DejaVuSans-5c" transform="translate(358.640625 0)"/>
     <use xlink:href="#DejaVuSans-3" transform="translate(417.828125 0)"/>
     <use xlink:href="#DejaVuSans-8" transform="translate(449.609375 0)"/>
    </g>
    <!-- wall-time % -->
    <g style="fill: #182234" transform="translate(194.786206 55.180235) scale(0.066 -0.066)">
     <defs>
      <path id="DejaVuSans-5a" d="M 269 3500 
L 844 3500 
L 1563 769 
L 2278 3500 
L 2956 3500 
L 3675 769 
L 4391 3500 
L 4966 3500 
L 4050 0 
L 3372 0 
L 2619 2869 
L 1863 0 
L 1184 0 
L 269 3500 
z
" transform="scale(0.015625)"/>
      <path id="DejaVuSans-10" d="M 313 2009 
L 1997 2009 
L 1997 1497 
L 313 1497 
L 313 2009 
z
" transform="scale(0.015625)"/>
     </defs>
     <use xlink:href="#DejaVuSans-5a"/>
     <use xlink:href="#DejaVuSans-44" transform="translate(81.78125 0)"/>
     <use xlink:href="#DejaVuSans-4f" transform="translate(143.0625 0)"/>
     <use xlink:href="#DejaVuSans-4f" transform="translate(170.84375 0)"/>
     <use xlink:href="#DejaVuSans-10" transform="translate(198.625 0)"/>
     <use xlink:href="#DejaVuSans-57" transform="translate(234.703125 0)"/>
     <use xlink:href="#DejaVuSans-4c" transform="translate(273.90625 0)"/>
     <use xlink:href="#DejaVuSans-50" transform="translate(301.6875 0)"/>
     <use xlink:href="#DejaVuSans-48" transform="translate(399.09375 0)"/>
     <use xlink:href="#DejaVuSans-3" transform="translate(460.625 0)"/>
     <use xlink:href="#DejaVuSans-8" transform="translate(492.40625 0)"/>
    </g>
   </g>
   <g id="text_9">
    <!-- Policy layer -->
    <g style="fill: #182234" transform="translate(256.908674 43.095562) scale(0.084 -0.084)">
     <defs>
      <path id="DejaVuSans-Bold-52" d="M 2203 2784 
Q 1831 2784 1636 2517 
Q 1441 2250 1441 1747 
Q 1441 1244 1636 976 
Q 1831 709 2203 709 
Q 2569 709 2762 976 
Q 2956 1244 2956 1747 
Q 2956 2250 2762 2517 
Q 2569 2784 2203 2784 
z
M 2203 3584 
Q 3106 3584 3614 3096 
Q 4122 2609 4122 1747 
Q 4122 884 3614 396 
Q 3106 -91 2203 -91 
Q 1297 -91 786 396 
Q 275 884 275 1747 
Q 275 2609 786 3096 
Q 1297 3584 2203 3584 
z
" transform="scale(0.015625)"/>
      <path id="DejaVuSans-Bold-5c" d="M 78 3500 
L 1197 3500 
L 2138 1125 
L 2938 3500 
L 4056 3500 
L 2584 -331 
Q 2363 -916 2067 -1148 
Q 1772 -1381 1288 -1381 
L 641 -1381 
L 641 -647 
L 991 -647 
Q 1275 -647 1404 -556 
Q 1534 -466 1606 -231 
L 1638 -134 
L 78 3500 
z
" transform="scale(0.015625)"/>
      <path id="DejaVuSans-Bold-3" transform="scale(0.015625)"/>
     </defs>
     <use xlink:href="#DejaVuSans-Bold-33"/>
     <use xlink:href="#DejaVuSans-Bold-52" transform="translate(73.296875 0)"/>
     <use xlink:href="#DejaVuSans-Bold-4f" transform="translate(142 0)"/>
     <use xlink:href="#DejaVuSans-Bold-4c" transform="translate(176.28125 0)"/>
     <use xlink:href="#DejaVuSans-Bold-46" transform="translate(210.5625 0)"/>
     <use xlink:href="#DejaVuSans-Bold-5c" transform="translate(269.84375 0)"/>
     <use xlink:href="#DejaVuSans-Bold-3" transform="translate(335.03125 0)"/>
     <use xlink:href="#DejaVuSans-Bold-4f" transform="translate(369.84375 0)"/>
     <use xlink:href="#DejaVuSans-Bold-44" transform="translate(404.125 0)"/>
     <use xlink:href="#DejaVuSans-Bold-5c" transform="translate(468.53125 0)"/>
     <use xlink:href="#DejaVuSans-Bold-48" transform="translate(533.71875 0)"/>
     <use xlink:href="#DejaVuSans-Bold-55" transform="translate(601.546875 0)"/>
    </g>
   </g>
   <g id="text_10">
    <!-- buckets + mode -->
    <g style="fill: #182234" transform="translate(257.595276 49.116953) scale(0.065 -0.065)">
     <defs>
      <path id="DejaVuSans-45" d="M 3116 1747 
Q 3116 2381 2855 2742 
Q 2594 3103 2138 3103 
Q 1681 3103 1420 2742 
Q 1159 2381 1159 1747 
Q 1159 1113 1420 752 
Q 1681 391 2138 391 
Q 2594 391 2855 752 
Q 3116 1113 3116 1747 
z
M 1159 2969 
Q 1341 3281 1617 3432 
Q 1894 3584 2278 3584 
Q 2916 3584 3314 3078 
Q 3713 2572 3713 1747 
Q 3713 922 3314 415 
Q 2916 -91 2278 -91 
Q 1894 -91 1617 61 
Q 1341 213 1159 525 
L 1159 0 
L 581 0 
L 581 4863 
L 1159 4863 
L 1159 2969 
z
" transform="scale(0.015625)"/>
      <path id="DejaVuSans-46" d="M 3122 3366 
L 3122 2828 
Q 2878 2963 2633 3030 
Q 2388 3097 2138 3097 
Q 1578 3097 1268 2742 
Q 959 2388 959 1747 
Q 959 1106 1268 751 
Q 1578 397 2138 397 
Q 2388 397 2633 464 
Q 2878 531 3122 666 
L 3122 134 
Q 2881 22 2623 -34 
Q 2366 -91 2075 -91 
Q 1284 -91 818 406 
Q 353 903 353 1747 
Q 353 2603 823 3093 
Q 1294 3584 2113 3584 
Q 2378 3584 2631 3529 
Q 2884 3475 3122 3366 
z
" transform="scale(0.015625)"/>
      <path id="DejaVuSans-4e" d="M 581 4863 
L 1159 4863 
L 1159 1991 
L 2875 3500 
L 3609 3500 
L 1753 1863 
L 3688 0 
L 2938 0 
L 1159 1709 
L 1159 0 
L 581 0 
L 581 4863 
z
" transform="scale(0.015625)"/>
     </defs>
     <use xlink:href="#DejaVuSans-45"/>
     <use xlink:href="#DejaVuSans-58" transform="translate(63.484375 0)"/>
     <use xlink:href="#DejaVuSans-46" transform="translate(126.859375 0)"/>
     <use xlink:href="#DejaVuSans-4e" transform="translate(181.84375 0)"/>
     <use xlink:href="#DejaVuSans-48" transform="translate(236.1875 0)"/>
     <use xlink:href="#DejaVuSans-57" transform="translate(297.71875 0)"/>
     <use xlink:href="#DejaVuSans-56" transform="translate(336.921875 0)"/>
     <use xlink:href="#DejaVuSans-3" transform="translate(389.015625 0)"/>
     <use xlink:href="#DejaVuSans-e" transform="translate(420.796875 0)"/>
     <use xlink:href="#DejaVuSans-3" transform="translate(504.59375 0)"/>
     <use xlink:href="#DejaVuSans-50" transform="translate(536.375 0)"/>
     <use xlink:href="#DejaVuSans-52" transform="translate(633.78125 0)"/>
     <use xlink:href="#DejaVuSans-47" transform="translate(694.96875 0)"/>
     <use xlink:href="#DejaVuSans-48" transform="translate(758.453125 0)"/>
    </g>
    <!-- direct or safer -->
    <g style="fill: #182234" transform="translate(261.398284 55.096953) scale(0.065 -0.065)">
     <defs>
      <path id="DejaVuSans-49" d="M 2375 4863 
L 2375 4384 
L 1825 4384 
Q 1516 4384 1395 4259 
Q 1275 4134 1275 3809 
L 1275 3500 
L 2222 3500 
L 2222 3053 
L 1275 3053 
L 1275 0 
L 697 0 
L 697 3053 
L 147 3053 
L 147 3500 
L 697 3500 
L 697 3744 
Q 697 4328 969 4595 
Q 1241 4863 1831 4863 
L 2375 4863 
z
" transform="scale(0.015625)"/>
     </defs>
     <use xlink:href="#DejaVuSans-47"/>
     <use xlink:href="#DejaVuSans-4c" transform="translate(63.484375 0)"/>
     <use xlink:href="#DejaVuSans-55" transform="translate(91.265625 0)"/>
     <use xlink:href="#DejaVuSans-48" transform="translate(130.171875 0)"/>
     <use xlink:href="#DejaVuSans-46" transform="translate(191.703125 0)"/>
     <use xlink:href="#DejaVuSans-57" transform="translate(246.6875 0)"/>
     <use xlink:href="#DejaVuSans-3" transform="translate(285.890625 0)"/>
     <use xlink:href="#DejaVuSans-52" transform="translate(317.671875 0)"/>
     <use xlink:href="#DejaVuSans-55" transform="translate(378.859375 0)"/>
     <use xlink:href="#DejaVuSans-3" transform="translate(419.96875 0)"/>
     <use xlink:href="#DejaVuSans-56" transform="translate(451.75 0)"/>
     <use xlink:href="#DejaVuSans-44" transform="translate(503.84375 0)"/>
     <use xlink:href="#DejaVuSans-49" transform="translate(565.125 0)"/>
     <use xlink:href="#DejaVuSans-48" transform="translate(600.328125 0)"/>
     <use xlink:href="#DejaVuSans-55" transform="translate(661.859375 0)"/>
    </g>
   </g>
   <g id="text_11">
    <!-- Pass-through -->
    <g style="fill: #182234" transform="translate(147.158749 106.668607) scale(0.078 -0.078)">
     <defs>
      <path id="DejaVuSans-Bold-10" d="M 347 2297 
L 2309 2297 
L 2309 1388 
L 347 1388 
L 347 2297 
z
" transform="scale(0.015625)"/>
      <path id="DejaVuSans-Bold-4b" d="M 4056 2131 
L 4056 0 
L 2931 0 
L 2931 347 
L 2931 1625 
Q 2931 2084 2911 2256 
Q 2891 2428 2841 2509 
Q 2775 2619 2662 2680 
Q 2550 2741 2406 2741 
Q 2056 2741 1856 2470 
Q 1656 2200 1656 1722 
L 1656 0 
L 538 0 
L 538 4863 
L 1656 4863 
L 1656 2988 
Q 1909 3294 2193 3439 
Q 2478 3584 2822 3584 
Q 3428 3584 3742 3212 
Q 4056 2841 4056 2131 
z
" transform="scale(0.015625)"/>
     </defs>
     <use xlink:href="#DejaVuSans-Bold-33"/>
     <use xlink:href="#DejaVuSans-Bold-44" transform="translate(70.609375 0)"/>
     <use xlink:href="#DejaVuSans-Bold-56" transform="translate(138.09375 0)"/>
     <use xlink:href="#DejaVuSans-Bold-56" transform="translate(197.609375 0)"/>
     <use xlink:href="#DejaVuSans-Bold-10" transform="translate(257.125 0)"/>
     <use xlink:href="#DejaVuSans-Bold-57" transform="translate(298.625 0)"/>
     <use xlink:href="#DejaVuSans-Bold-4b" transform="translate(346.421875 0)"/>
     <use xlink:href="#DejaVuSans-Bold-55" transform="translate(417.609375 0)"/>
     <use xlink:href="#DejaVuSans-Bold-52" transform="translate(466.921875 0)"/>
     <use xlink:href="#DejaVuSans-Bold-58" transform="translate(535.625 0)"/>
     <use xlink:href="#DejaVuSans-Bold-4a" transform="translate(606.8125 0)"/>
     <use xlink:href="#DejaVuSans-Bold-4b" transform="translate(678.390625 0)"/>
    </g>
   </g>
   <g id="text_12">
    <!-- original request -->
    <g style="fill: #182234" transform="translate(152.035983 114.420894) scale(0.062 -0.062)">
     <defs>
      <path id="DejaVuSans-4a" d="M 2906 1791 
Q 2906 2416 2648 2759 
Q 2391 3103 1925 3103 
Q 1463 3103 1205 2759 
Q 947 2416 947 1791 
Q 947 1169 1205 825 
Q 1463 481 1925 481 
Q 2391 481 2648 825 
Q 2906 1169 2906 1791 
z
M 3481 434 
Q 3481 -459 3084 -895 
Q 2688 -1331 1869 -1331 
Q 1566 -1331 1297 -1286 
Q 1028 -1241 775 -1147 
L 775 -588 
Q 1028 -725 1275 -790 
Q 1522 -856 1778 -856 
Q 2344 -856 2625 -561 
Q 2906 -266 2906 331 
L 2906 616 
Q 2728 306 2450 153 
Q 2172 0 1784 0 
Q 1141 0 747 490 
Q 353 981 353 1791 
Q 353 2603 747 3093 
Q 1141 3584 1784 3584 
Q 2172 3584 2450 3431 
Q 2728 3278 2906 2969 
L 2906 3500 
L 3481 3500 
L 3481 434 
z
" transform="scale(0.015625)"/>
     </defs>
     <use xlink:href="#DejaVuSans-52"/>
     <use xlink:href="#DejaVuSans-55" transform="translate(61.1875 0)"/>
     <use xlink:href="#DejaVuSans-4c" transform="translate(102.296875 0)"/>
     <use xlink:href="#DejaVuSans-4a" transform="translate(130.078125 0)"/>
     <use xlink:href="#DejaVuSans-4c" transform="translate(193.5625 0)"/>
     <use xlink:href="#DejaVuSans-51" transform="translate(221.34375 0)"/>
     <use xlink:href="#DejaVuSans-44" transform="translate(284.71875 0)"/>
     <use xlink:href="#DejaVuSans-4f" transform="translate(346 0)"/>
     <use xlink:href="#DejaVuSans-3" transform="translate(373.78125 0)"/>
     <use xlink:href="#DejaVuSans-55" transform="translate(405.5625 0)"/>
     <use xlink:href="#DejaVuSans-48" transform="translate(444.46875 0)"/>
     <use xlink:href="#DejaVuSans-54" transform="translate(506 0)"/>
     <use xlink:href="#DejaVuSans-58" transform="translate(569.484375 0)"/>
     <use xlink:href="#DejaVuSans-48" transform="translate(632.859375 0)"/>
     <use xlink:href="#DejaVuSans-56" transform="translate(694.390625 0)"/>
     <use xlink:href="#DejaVuSans-57" transform="translate(746.484375 0)"/>
    </g>
   </g>
   <g id="text_13">
    <!-- User review -->
    <g style="fill: #182234" transform="translate(261.38406 120.361133) scale(0.078 -0.078)">
     <defs>
      <path id="DejaVuSans-Bold-38" d="M 588 4666 
L 1791 4666 
L 1791 1869 
Q 1791 1291 1980 1042 
Q 2169 794 2597 794 
Q 3028 794 3217 1042 
Q 3406 1291 3406 1869 
L 3406 4666 
L 4609 4666 
L 4609 1869 
Q 4609 878 4112 393 
Q 3616 -91 2597 -91 
Q 1581 -91 1084 393 
Q 588 878 588 1869 
L 588 4666 
z
" transform="scale(0.015625)"/>
      <path id="DejaVuSans-Bold-5a" d="M 225 3500 
L 1313 3500 
L 1900 1088 
L 2491 3500 
L 3425 3500 
L 4013 1113 
L 4603 3500 
L 5691 3500 
L 4769 0 
L 3547 0 
L 2956 2406 
L 2369 0 
L 1147 0 
L 225 3500 
z
" transform="scale(0.015625)"/>
     </defs>
     <use xlink:href="#DejaVuSans-Bold-38"/>
     <use xlink:href="#DejaVuSans-Bold-56" transform="translate(81.203125 0)"/>
     <use xlink:href="#DejaVuSans-Bold-48" transform="translate(140.71875 0)"/>
     <use xlink:href="#DejaVuSans-Bold-55" transform="translate(208.546875 0)"/>
     <use xlink:href="#DejaVuSans-Bold-3" transform="translate(257.859375 0)"/>
     <use xlink:href="#DejaVuSans-Bold-55" transform="translate(292.671875 0)"/>
     <use xlink:href="#DejaVuSans-Bold-48" transform="translate(341.984375 0)"/>
     <use xlink:href="#DejaVuSans-Bold-59" transform="translate(409.8125 0)"/>
     <use xlink:href="#DejaVuSans-Bold-4c" transform="translate(475 0)"/>
     <use xlink:href="#DejaVuSans-Bold-48" transform="translate(509.28125 0)"/>
     <use xlink:href="#DejaVuSans-Bold-5a" transform="translate(577.109375 0)"/>
    </g>
   </g>
   <g id="text_14">
    <!-- accept / edit / reject -->
    <g style="fill: #182234" transform="translate(256.311466 127.327326) scale(0.062 -0.062)">
     <defs>
      <path id="DejaVuSans-53" d="M 1159 525 
L 1159 -1331 
L 581 -1331 
L 581 3500 
L 1159 3500 
L 1159 2969 
Q 1341 3281 1617 3432 
Q 1894 3584 2278 3584 
Q 2916 3584 3314 3078 
Q 3713 2572 3713 1747 
Q 3713 922 3314 415 
Q 2916 -91 2278 -91 
Q 1894 -91 1617 61 
Q 1341 213 1159 525 
z
M 3116 1747 
Q 3116 2381 2855 2742 
Q 2594 3103 2138 3103 
Q 1681 3103 1420 2742 
Q 1159 2381 1159 1747 
Q 1159 1113 1420 752 
Q 1681 391 2138 391 
Q 2594 391 2855 752 
Q 3116 1113 3116 1747 
z
" transform="scale(0.015625)"/>
      <path id="DejaVuSans-4d" d="M 603 3500 
L 1178 3500 
L 1178 -63 
Q 1178 -731 923 -1031 
Q 669 -1331 103 -1331 
L -116 -1331 
L -116 -844 
L 38 -844 
Q 366 -844 484 -692 
Q 603 -541 603 -63 
L 603 3500 
z
M 603 4863 
L 1178 4863 
L 1178 4134 
L 603 4134 
L 603 4863 
z
" transform="scale(0.015625)"/>
     </defs>
     <use xlink:href="#DejaVuSans-44"/>
     <use xlink:href="#DejaVuSans-46" transform="translate(61.28125 0)"/>
     <use xlink:href="#DejaVuSans-46" transform="translate(116.265625 0)"/>
     <use xlink:href="#DejaVuSans-48" transform="translate(171.25 0)"/>
     <use xlink:href="#DejaVuSans-53" transform="translate(232.78125 0)"/>
     <use xlink:href="#DejaVuSans-57" transform="translate(296.265625 0)"/>
     <use xlink:href="#DejaVuSans-3" transform="translate(335.46875 0)"/>
     <use xlink:href="#DejaVuSans-12" transform="translate(367.25 0)"/>
     <use xlink:href="#DejaVuSans-3" transform="translate(400.9375 0)"/>
     <use xlink:href="#DejaVuSans-48" transform="translate(432.71875 0)"/>
     <use xlink:href="#DejaVuSans-47" transform="translate(494.25 0)"/>
     <use xlink:href="#DejaVuSans-4c" transform="translate(557.734375 0)"/>
     <use xlink:href="#DejaVuSans-57" transform="translate(585.515625 0)"/>
     <use xlink:href="#DejaVuSans-3" transform="translate(624.71875 0)"/>
     <use xlink:href="#DejaVuSans-12" transform="translate(656.5 0)"/>
     <use xlink:href="#DejaVuSans-3" transform="translate(690.1875 0)"/>
     <use xlink:href="#DejaVuSans-55" transform="translate(721.96875 0)"/>
     <use xlink:href="#DejaVuSans-48" transform="translate(760.875 0)"/>
     <use xlink:href="#DejaVuSans-4d" transform="translate(822.40625 0)"/>
     <use xlink:href="#DejaVuSans-48" transform="translate(850.1875 0)"/>
     <use xlink:href="#DejaVuSans-46" transform="translate(911.71875 0)"/>
     <use xlink:href="#DejaVuSans-57" transform="translate(966.703125 0)"/>
    </g>
   </g>
   <g id="text_15">
    <!-- SLURM -->
    <g style="fill: #182234" transform="translate(353.533626 120.292273) scale(0.078 -0.078)">
     <defs>
      <path id="DejaVuSans-Bold-2f" d="M 588 4666 
L 1791 4666 
L 1791 909 
L 3903 909 
L 3903 0 
L 588 0 
L 588 4666 
z
" transform="scale(0.015625)"/>
      <path id="DejaVuSans-Bold-30" d="M 588 4666 
L 2119 4666 
L 3181 2169 
L 4250 4666 
L 5778 4666 
L 5778 0 
L 4641 0 
L 4641 3413 
L 3566 897 
L 2803 897 
L 1728 3413 
L 1728 0 
L 588 0 
L 588 4666 
z
" transform="scale(0.015625)"/>
     </defs>
     <use xlink:href="#DejaVuSans-Bold-36"/>
     <use xlink:href="#DejaVuSans-Bold-2f" transform="translate(72.015625 0)"/>
     <use xlink:href="#DejaVuSans-Bold-38" transform="translate(132.171875 0)"/>
     <use xlink:href="#DejaVuSans-Bold-35" transform="translate(213.375 0)"/>
     <use xlink:href="#DejaVuSans-Bold-30" transform="translate(290.375 0)"/>
    </g>
   </g>
   <g id="text_16">
    <!-- schedule -->
    <g style="fill: #182234" transform="translate(354.846516 127.927951) scale(0.062 -0.062)">
     <use xlink:href="#DejaVuSans-56"/>
     <use xlink:href="#DejaVuSans-46" transform="translate(52.09375 0)"/>
     <use xlink:href="#DejaVuSans-4b" transform="translate(107.078125 0)"/>
     <use xlink:href="#DejaVuSans-48" transform="translate(170.453125 0)"/>
     <use xlink:href="#DejaVuSans-47" transform="translate(231.984375 0)"/>
     <use xlink:href="#DejaVuSans-58" transform="translate(295.46875 0)"/>
     <use xlink:href="#DejaVuSans-4f" transform="translate(358.84375 0)"/>
     <use xlink:href="#DejaVuSans-48" transform="translate(386.625 0)"/>
    </g>
   </g>
   <g id="text_17">
    <!-- History store -->
    <g style="fill: #182234" transform="translate(73.293635 177.62678) scale(0.077 -0.077)">
     <defs>
      <path id="DejaVuSans-Bold-2b" d="M 588 4666 
L 1791 4666 
L 1791 2888 
L 3566 2888 
L 3566 4666 
L 4769 4666 
L 4769 0 
L 3566 0 
L 3566 1978 
L 1791 1978 
L 1791 0 
L 588 0 
L 588 4666 
z
" transform="scale(0.015625)"/>
     </defs>
     <use xlink:href="#DejaVuSans-Bold-2b"/>
     <use xlink:href="#DejaVuSans-Bold-4c" transform="translate(83.6875 0)"/>
     <use xlink:href="#DejaVuSans-Bold-56" transform="translate(117.96875 0)"/>
     <use xlink:href="#DejaVuSans-Bold-57" transform="translate(177.484375 0)"/>
     <use xlink:href="#DejaVuSans-Bold-52" transform="translate(225.28125 0)"/>
     <use xlink:href="#DejaVuSans-Bold-55" transform="translate(293.984375 0)"/>
     <use xlink:href="#DejaVuSans-Bold-5c" transform="translate(343.296875 0)"/>
     <use xlink:href="#DejaVuSans-Bold-3" transform="translate(408.484375 0)"/>
     <use xlink:href="#DejaVuSans-Bold-56" transform="translate(443.296875 0)"/>
     <use xlink:href="#DejaVuSans-Bold-57" transform="translate(502.8125 0)"/>
     <use xlink:href="#DejaVuSans-Bold-52" transform="translate(550.609375 0)"/>
     <use xlink:href="#DejaVuSans-Bold-55" transform="translate(619.3125 0)"/>
     <use xlink:href="#DejaVuSans-Bold-48" transform="translate(668.625 0)"/>
    </g>
   </g>
   <g id="text_18">
    <!-- executed jobs -->
    <g style="fill: #182234" transform="translate(80.409072 182.572676) scale(0.061 -0.061)">
     <defs>
      <path id="DejaVuSans-5b" d="M 3513 3500 
L 2247 1797 
L 3578 0 
L 2900 0 
L 1881 1375 
L 863 0 
L 184 0 
L 1544 1831 
L 300 3500 
L 978 3500 
L 1906 2253 
L 2834 3500 
L 3513 3500 
z
" transform="scale(0.015625)"/>
     </defs>
     <use xlink:href="#DejaVuSans-48"/>
     <use xlink:href="#DejaVuSans-5b" transform="translate(59.78125 0)"/>
     <use xlink:href="#DejaVuSans-48" transform="translate(115.890625 0)"/>
     <use xlink:href="#DejaVuSans-46" transform="translate(177.421875 0)"/>
     <use xlink:href="#DejaVuSans-58" transform="translate(232.40625 0)"/>
     <use xlink:href="#DejaVuSans-57" transform="translate(295.78125 0)"/>
     <use xlink:href="#DejaVuSans-48" transform="translate(334.984375 0)"/>
     <use xlink:href="#DejaVuSans-47" transform="translate(396.515625 0)"/>
     <use xlink:href="#DejaVuSans-3" transform="translate(460 0)"/>
     <use xlink:href="#DejaVuSans-4d" transform="translate(491.78125 0)"/>
     <use xlink:href="#DejaVuSans-52" transform="translate(519.5625 0)"/>
     <use xlink:href="#DejaVuSans-45" transform="translate(580.75 0)"/>
     <use xlink:href="#DejaVuSans-56" transform="translate(644.234375 0)"/>
    </g>
    <!-- usage logs -->
    <g style="fill: #182234" transform="translate(85.235221 188.184676) scale(0.061 -0.061)">
     <use xlink:href="#DejaVuSans-58"/>
     <use xlink:href="#DejaVuSans-56" transform="translate(63.375 0)"/>
     <use xlink:href="#DejaVuSans-44" transform="translate(115.46875 0)"/>
     <use xlink:href="#DejaVuSans-4a" transform="translate(176.75 0)"/>
     <use xlink:href="#DejaVuSans-48" transform="translate(240.234375 0)"/>
     <use xlink:href="#DejaVuSans-3" transform="translate(301.765625 0)"/>
     <use xlink:href="#DejaVuSans-4f" transform="translate(333.546875 0)"/>
     <use xlink:href="#DejaVuSans-52" transform="translate(361.328125 0)"/>
     <use xlink:href="#DejaVuSans-4a" transform="translate(422.515625 0)"/>
     <use xlink:href="#DejaVuSans-56" transform="translate(486 0)"/>
    </g>
   </g>
   <g id="text_19">
    <!-- low expected -->
    <g style="fill: #6b7280" transform="translate(179.8452 86.803419) scale(0.061 -0.061)">
     <defs>
      <path id="DejaVuSans-Bold-5b" d="M 1422 1791 
L 159 3500 
L 1344 3500 
L 2059 2463 
L 2784 3500 
L 3969 3500 
L 2706 1797 
L 4031 0 
L 2847 0 
L 2059 1106 
L 1281 0 
L 97 0 
L 1422 1791 
z
" transform="scale(0.015625)"/>
     </defs>
     <use xlink:href="#DejaVuSans-Bold-4f"/>
     <use xlink:href="#DejaVuSans-Bold-52" transform="translate(34.28125 0)"/>
     <use xlink:href="#DejaVuSans-Bold-5a" transform="translate(102.984375 0)"/>
     <use xlink:href="#DejaVuSans-Bold-3" transform="translate(195.375 0)"/>
     <use xlink:href="#DejaVuSans-Bold-48" transform="translate(230.1875 0)"/>
     <use xlink:href="#DejaVuSans-Bold-5b" transform="translate(298.015625 0)"/>
     <use xlink:href="#DejaVuSans-Bold-53" transform="translate(362.515625 0)"/>
     <use xlink:href="#DejaVuSans-Bold-48" transform="translate(434.09375 0)"/>
     <use xlink:href="#DejaVuSans-Bold-46" transform="translate(501.921875 0)"/>
     <use xlink:href="#DejaVuSans-Bold-57" transform="translate(561.203125 0)"/>
     <use xlink:href="#DejaVuSans-Bold-48" transform="translate(609 0)"/>
     <use xlink:href="#DejaVuSans-Bold-47" transform="translate(676.828125 0)"/>
    </g>
    <!-- benefit -->
    <g style="fill: #6b7280" transform="translate(179.8452 92.884356) scale(0.061 -0.061)">
     <defs>
      <path id="DejaVuSans-Bold-45" d="M 2400 722 
Q 2759 722 2948 984 
Q 3138 1247 3138 1747 
Q 3138 2247 2948 2509 
Q 2759 2772 2400 2772 
Q 2041 2772 1848 2508 
Q 1656 2244 1656 1747 
Q 1656 1250 1848 986 
Q 2041 722 2400 722 
z
M 1656 2988 
Q 1888 3294 2169 3439 
Q 2450 3584 2816 3584 
Q 3463 3584 3878 3070 
Q 4294 2556 4294 1747 
Q 4294 938 3878 423 
Q 3463 -91 2816 -91 
Q 2450 -91 2169 54 
Q 1888 200 1656 506 
L 1656 0 
L 538 0 
L 538 4863 
L 1656 4863 
L 1656 2988 
z
" transform="scale(0.015625)"/>
      <path id="DejaVuSans-Bold-51" d="M 4056 2131 
L 4056 0 
L 2931 0 
L 2931 347 
L 2931 1631 
Q 2931 2084 2911 2256 
Q 2891 2428 2841 2509 
Q 2775 2619 2662 2680 
Q 2550 2741 2406 2741 
Q 2056 2741 1856 2470 
Q 1656 2200 1656 1722 
L 1656 0 
L 538 0 
L 538 3500 
L 1656 3500 
L 1656 2988 
Q 1909 3294 2193 3439 
Q 2478 3584 2822 3584 
Q 3428 3584 3742 3212 
Q 4056 2841 4056 2131 
z
" transform="scale(0.015625)"/>
      <path id="DejaVuSans-Bold-13ab" d="M 3078 4863 
L 4206 4863 
L 4206 3950 
L 3078 3950 
L 3078 4863 
z
M 2847 4863 
L 2847 4128 
L 2228 4128 
Q 1994 4128 1903 4042 
Q 1813 3956 1813 3744 
L 1813 3500 
L 4206 3500 
L 4206 0 
L 3078 0 
L 3078 2700 
L 1813 2700 
L 1813 0 
L 684 0 
L 684 2700 
L 134 2700 
L 134 3500 
L 684 3500 
L 684 3744 
Q 684 4316 1003 4589 
Q 1322 4863 1991 4863 
L 2847 4863 
z
" transform="scale(0.015625)"/>
     </defs>
     <use xlink:href="#DejaVuSans-Bold-45"/>
     <use xlink:href="#DejaVuSans-Bold-48" transform="translate(71.578125 0)"/>
     <use xlink:href="#DejaVuSans-Bold-51" transform="translate(139.40625 0)"/>
     <use xlink:href="#DejaVuSans-Bold-48" transform="translate(210.59375 0)"/>
     <use xlink:href="#DejaVuSans-Bold-13ab" transform="translate(278.421875 0)"/>
     <use xlink:href="#DejaVuSans-Bold-57" transform="translate(352.546875 0)"/>
    </g>
   </g>
   <g id="text_20">
    <!-- unchanged request to scheduler -->
    <g style="fill: #6b7280" transform="translate(234.410513 137.667354) scale(0.058 -0.058)">
     <use xlink:href="#DejaVuSans-Bold-58"/>
     <use xlink:href="#DejaVuSans-Bold-51" transform="translate(71.1875 0)"/>
     <use xlink:href="#DejaVuSans-Bold-46" transform="translate(142.375 0)"/>
     <use xlink:href="#DejaVuSans-Bold-4b" transform="translate(201.65625 0)"/>
     <use xlink:href="#DejaVuSans-Bold-44" transform="translate(272.84375 0)"/>
     <use xlink:href="#DejaVuSans-Bold-51" transform="translate(340.328125 0)"/>
     <use xlink:href="#DejaVuSans-Bold-4a" transform="translate(411.515625 0)"/>
     <use xlink:href="#DejaVuSans-Bold-48" transform="translate(483.09375 0)"/>
     <use xlink:href="#DejaVuSans-Bold-47" transform="translate(550.921875 0)"/>
     <use xlink:href="#DejaVuSans-Bold-3" transform="translate(622.5 0)"/>
     <use xlink:href="#DejaVuSans-Bold-55" transform="translate(657.3125 0)"/>
     <use xlink:href="#DejaVuSans-Bold-48" transform="translate(706.625 0)"/>
     <use xlink:href="#DejaVuSans-Bold-54" transform="translate(774.453125 0)"/>
     <use xlink:href="#DejaVuSans-Bold-58" transform="translate(846.03125 0)"/>
     <use xlink:href="#DejaVuSans-Bold-48" transform="translate(917.21875 0)"/>
     <use xlink:href="#DejaVuSans-Bold-56" transform="translate(985.046875 0)"/>
     <use xlink:href="#DejaVuSans-Bold-57" transform="translate(1044.5625 0)"/>
     <use xlink:href="#DejaVuSans-Bold-3" transform="translate(1092.359375 0)"/>
     <use xlink:href="#DejaVuSans-Bold-57" transform="translate(1127.171875 0)"/>
     <use xlink:href="#DejaVuSans-Bold-52" transform="translate(1174.96875 0)"/>
     <use xlink:href="#DejaVuSans-Bold-3" transform="translate(1243.671875 0)"/>
     <use xlink:href="#DejaVuSans-Bold-56" transform="translate(1278.484375 0)"/>
     <use xlink:href="#DejaVuSans-Bold-46" transform="translate(1338 0)"/>
     <use xlink:href="#DejaVuSans-Bold-4b" transform="translate(1397.28125 0)"/>
     <use xlink:href="#DejaVuSans-Bold-48" transform="translate(1468.46875 0)"/>
     <use xlink:href="#DejaVuSans-Bold-47" transform="translate(1536.296875 0)"/>
     <use xlink:href="#DejaVuSans-Bold-58" transform="translate(1607.875 0)"/>
     <use xlink:href="#DejaVuSans-Bold-4f" transform="translate(1679.0625 0)"/>
     <use xlink:href="#DejaVuSans-Bold-48" transform="translate(1713.34375 0)"/>
     <use xlink:href="#DejaVuSans-Bold-55" transform="translate(1781.171875 0)"/>
    </g>
   </g>
   <g id="text_21">
    <!-- execution feedback updates future features -->
    <g style="fill: #009e73" transform="translate(167.661696 167.901376) scale(0.062 -0.062)">
     <defs>
      <path id="DejaVuSans-Bold-49" d="M 2841 4863 
L 2841 4128 
L 2222 4128 
Q 1984 4128 1890 4042 
Q 1797 3956 1797 3744 
L 1797 3500 
L 2753 3500 
L 2753 2700 
L 1797 2700 
L 1797 0 
L 678 0 
L 678 2700 
L 122 2700 
L 122 3500 
L 678 3500 
L 678 3744 
Q 678 4316 997 4589 
Q 1316 4863 1984 4863 
L 2841 4863 
z
" transform="scale(0.015625)"/>
      <path id="DejaVuSans-Bold-4e" d="M 538 4863 
L 1656 4863 
L 1656 2216 
L 2944 3500 
L 4244 3500 
L 2534 1894 
L 4378 0 
L 3022 0 
L 1656 1459 
L 1656 0 
L 538 0 
L 538 4863 
z
" transform="scale(0.015625)"/>
     </defs>
     <use xlink:href="#DejaVuSans-Bold-48"/>
     <use xlink:href="#DejaVuSans-Bold-5b" transform="translate(67.828125 0)"/>
     <use xlink:href="#DejaVuSans-Bold-48" transform="translate(132.328125 0)"/>
     <use xlink:href="#DejaVuSans-Bold-46" transform="translate(200.15625 0)"/>
     <use xlink:href="#DejaVuSans-Bold-58" transform="translate(259.4375 0)"/>
     <use xlink:href="#DejaVuSans-Bold-57" transform="translate(330.625 0)"/>
     <use xlink:href="#DejaVuSans-Bold-4c" transform="translate(378.421875 0)"/>
     <use xlink:href="#DejaVuSans-Bold-52" transform="translate(412.703125 0)"/>
     <use xlink:href="#DejaVuSans-Bold-51" transform="translate(481.40625 0)"/>
     <use xlink:href="#DejaVuSans-Bold-3" transform="translate(552.59375 0)"/>
     <use xlink:href="#DejaVuSans-Bold-49" transform="translate(587.40625 0)"/>
     <use xlink:href="#DejaVuSans-Bold-48" transform="translate(630.90625 0)"/>
     <use xlink:href="#DejaVuSans-Bold-48" transform="translate(698.734375 0)"/>
     <use xlink:href="#DejaVuSans-Bold-47" transform="translate(766.5625 0)"/>
     <use xlink:href="#DejaVuSans-Bold-45" transform="translate(838.140625 0)"/>
     <use xlink:href="#DejaVuSans-Bold-44" transform="translate(909.71875 0)"/>
     <use xlink:href="#DejaVuSans-Bold-46" transform="translate(977.203125 0)"/>
     <use xlink:href="#DejaVuSans-Bold-4e" transform="translate(1036.484375 0)"/>
     <use xlink:href="#DejaVuSans-Bold-3" transform="translate(1102.984375 0)"/>
     <use xlink:href="#DejaVuSans-Bold-58" transform="translate(1137.796875 0)"/>
     <use xlink:href="#DejaVuSans-Bold-53" transform="translate(1208.984375 0)"/>
     <use xlink:href="#DejaVuSans-Bold-47" transform="translate(1280.5625 0)"/>
     <use xlink:href="#DejaVuSans-Bold-44" transform="translate(1352.140625 0)"/>
     <use xlink:href="#DejaVuSans-Bold-57" transform="translate(1419.625 0)"/>
     <use xlink:href="#DejaVuSans-Bold-48" transform="translate(1467.421875 0)"/>
     <use xlink:href="#DejaVuSans-Bold-56" transform="translate(1535.25 0)"/>
     <use xlink:href="#DejaVuSans-Bold-3" transform="translate(1594.765625 0)"/>
     <use xlink:href="#DejaVuSans-Bold-49" transform="translate(1629.578125 0)"/>
     <use xlink:href="#DejaVuSans-Bold-58" transform="translate(1673.078125 0)"/>
     <use xlink:href="#DejaVuSans-Bold-57" transform="translate(1744.265625 0)"/>
     <use xlink:href="#DejaVuSans-Bold-58" transform="translate(1792.0625 0)"/>
     <use xlink:href="#DejaVuSans-Bold-55" transform="translate(1863.25 0)"/>
     <use xlink:href="#DejaVuSans-Bold-48" transform="translate(1912.5625 0)"/>
     <use xlink:href="#DejaVuSans-Bold-3" transform="translate(1980.390625 0)"/>
     <use xlink:href="#DejaVuSans-Bold-49" transform="translate(2015.203125 0)"/>
     <use xlink:href="#DejaVuSans-Bold-48" transform="translate(2058.703125 0)"/>
     <use xlink:href="#DejaVuSans-Bold-44" transform="translate(2126.53125 0)"/>
     <use xlink:href="#DejaVuSans-Bold-57" transform="translate(2194.015625 0)"/>
     <use xlink:href="#DejaVuSans-Bold-58" transform="translate(2241.8125 0)"/>
     <use xlink:href="#DejaVuSans-Bold-55" transform="translate(2313 0)"/>
     <use xlink:href="#DejaVuSans-Bold-48" transform="translate(2362.3125 0)"/>
     <use xlink:href="#DejaVuSans-Bold-56" transform="translate(2430.140625 0)"/>
    </g>
   </g>
   <g id="text_22">
    <!-- historical context -->
    <g style="fill: #009e73" transform="translate(109.908604 142.243465) rotate(-90) scale(0.06 -0.06)">
     <use xlink:href="#DejaVuSans-Bold-4b"/>
     <use xlink:href="#DejaVuSans-Bold-4c" transform="translate(71.1875 0)"/>
     <use xlink:href="#DejaVuSans-Bold-56" transform="translate(105.46875 0)"/>
     <use xlink:href="#DejaVuSans-Bold-57" transform="translate(164.984375 0)"/>
     <use xlink:href="#DejaVuSans-Bold-52" transform="translate(212.78125 0)"/>
     <use xlink:href="#DejaVuSans-Bold-55" transform="translate(281.484375 0)"/>
     <use xlink:href="#DejaVuSans-Bold-4c" transform="translate(330.796875 0)"/>
     <use xlink:href="#DejaVuSans-Bold-46" transform="translate(365.078125 0)"/>
     <use xlink:href="#DejaVuSans-Bold-44" transform="translate(424.359375 0)"/>
     <use xlink:href="#DejaVuSans-Bold-4f" transform="translate(491.84375 0)"/>
     <use xlink:href="#DejaVuSans-Bold-3" transform="translate(526.125 0)"/>
     <use xlink:href="#DejaVuSans-Bold-46" transform="translate(560.9375 0)"/>
     <use xlink:href="#DejaVuSans-Bold-52" transform="translate(620.21875 0)"/>
     <use xlink:href="#DejaVuSans-Bold-51" transform="translate(688.921875 0)"/>
     <use xlink:href="#DejaVuSans-Bold-57" transform="translate(760.109375 0)"/>
     <use xlink:href="#DejaVuSans-Bold-48" transform="translate(807.90625 0)"/>
     <use xlink:href="#DejaVuSans-Bold-5b" transform="translate(875.734375 0)"/>
     <use xlink:href="#DejaVuSans-Bold-57" transform="translate(940.234375 0)"/>
    </g>
   </g>
   <g id="text_23">
    <!-- recommendation path -->
    <g style="fill: #6b7280" transform="translate(31.57344 216.207374) scale(0.055 -0.055)">
     <use xlink:href="#DejaVuSans-55"/>
     <use xlink:href="#DejaVuSans-48" transform="translate(38.90625 0)"/>
     <use xlink:href="#DejaVuSans-46" transform="translate(100.4375 0)"/>
     <use xlink:href="#DejaVuSans-52" transform="translate(155.421875 0)"/>
     <use xlink:href="#DejaVuSans-50" transform="translate(216.609375 0)"/>
     <use xlink:href="#DejaVuSans-50" transform="translate(314.015625 0)"/>
     <use xlink:href="#DejaVuSans-48" transform="translate(411.421875 0)"/>
     <use xlink:href="#DejaVuSans-51" transform="translate(472.953125 0)"/>
     <use xlink:href="#DejaVuSans-47" transform="translate(536.328125 0)"/>
     <use xlink:href="#DejaVuSans-44" transform="translate(599.8125 0)"/>
     <use xlink:href="#DejaVuSans-57" transform="translate(661.09375 0)"/>
     <use xlink:href="#DejaVuSans-4c" transform="translate(700.296875 0)"/>
     <use xlink:href="#DejaVuSans-52" transform="translate(728.078125 0)"/>
     <use xlink:href="#DejaVuSans-51" transform="translate(789.265625 0)"/>
     <use xlink:href="#DejaVuSans-3" transform="translate(852.640625 0)"/>
     <use xlink:href="#DejaVuSans-53" transform="translate(884.421875 0)"/>
     <use xlink:href="#DejaVuSans-44" transform="translate(947.90625 0)"/>
     <use xlink:href="#DejaVuSans-57" transform="translate(1009.1875 0)"/>
     <use xlink:href="#DejaVuSans-4b" transform="translate(1048.390625 0)"/>
    </g>
   </g>
   <g id="text_24">
    <!-- pass-through path -->
    <g style="fill: #6b7280" transform="translate(116.88048 216.207374) scale(0.055 -0.055)">
     <use xlink:href="#DejaVuSans-53"/>
     <use xlink:href="#DejaVuSans-44" transform="translate(63.484375 0)"/>
     <use xlink:href="#DejaVuSans-56" transform="translate(124.765625 0)"/>
     <use xlink:href="#DejaVuSans-56" transform="translate(176.859375 0)"/>
     <use xlink:href="#DejaVuSans-10" transform="translate(228.953125 0)"/>
     <use xlink:href="#DejaVuSans-57" transform="translate(265.03125 0)"/>
     <use xlink:href="#DejaVuSans-4b" transform="translate(304.234375 0)"/>
     <use xlink:href="#DejaVuSans-55" transform="translate(367.609375 0)"/>
     <use xlink:href="#DejaVuSans-52" transform="translate(406.515625 0)"/>
     <use xlink:href="#DejaVuSans-58" transform="translate(467.703125 0)"/>
     <use xlink:href="#DejaVuSans-4a" transform="translate(531.078125 0)"/>
     <use xlink:href="#DejaVuSans-4b" transform="translate(594.5625 0)"/>
     <use xlink:href="#DejaVuSans-3" transform="translate(657.9375 0)"/>
     <use xlink:href="#DejaVuSans-53" transform="translate(689.71875 0)"/>
     <use xlink:href="#DejaVuSans-44" transform="translate(753.203125 0)"/>
     <use xlink:href="#DejaVuSans-57" transform="translate(814.484375 0)"/>
     <use xlink:href="#DejaVuSans-4b" transform="translate(853.6875 0)"/>
    </g>
   </g>
   <g id="text_25">
    <!-- feedback loop -->
    <g style="fill: #6b7280" transform="translate(202.18752 216.207374) scale(0.055 -0.055)">
     <use xlink:href="#DejaVuSans-49"/>
     <use xlink:href="#DejaVuSans-48" transform="translate(35.203125 0)"/>
     <use xlink:href="#DejaVuSans-48" transform="translate(96.734375 0)"/>
     <use xlink:href="#DejaVuSans-47" transform="translate(158.265625 0)"/>
     <use xlink:href="#DejaVuSans-45" transform="translate(221.75 0)"/>
     <use xlink:href="#DejaVuSans-44" transform="translate(285.234375 0)"/>
     <use xlink:href="#DejaVuSans-46" transform="translate(346.515625 0)"/>
     <use xlink:href="#DejaVuSans-4e" transform="translate(401.5 0)"/>
     <use xlink:href="#DejaVuSans-3" transform="translate(459.40625 0)"/>
     <use xlink:href="#DejaVuSans-4f" transform="translate(491.1875 0)"/>
     <use xlink:href="#DejaVuSans-52" transform="translate(518.96875 0)"/>
     <use xlink:href="#DejaVuSans-52" transform="translate(580.15625 0)"/>
     <use xlink:href="#DejaVuSans-53" transform="translate(641.34375 0)"/>
    </g>
   </g>
  </g>
 </g>
 <defs>
  <clipPath id="pa25b9bbe02">
   <rect x="7.2" y="7.2" width="406.224" height="215.1072"/>
  </clipPath>
 </defs>
</svg>
